<svg width="24" height="24" viewBox="0 0 24 24" fill="none" xmlns="http://www.w3.org/2000/svg">
<path d="M21.707 20.293L18.319 16.905C19.368 15.553 20 13.861 20 12.021H18C18 13.31 17.585 14.499 16.891 15.477L15.439 14.025C15.787 13.434 16 12.755 16 12.021V6.021C16 3.804 14.215 2 12.021 2C11.951 2 11.881 2.009 11.812 2.025C9.69297 2.124 7.99997 3.878 7.99997 6.021V6.586L3.70697 2.293L2.29297 3.707L20.293 21.707L21.707 20.293ZM9.99997 6.021C9.99997 4.918 10.897 4.021 12 4.021C12.054 4.021 12.109 4.016 12.164 4.006C13.188 4.08 14 4.956 14 6.021V12.021C14 12.193 13.971 12.356 13.929 12.515L9.99997 8.586V6.021ZM5.99997 12.021H4.99997H3.99997C3.99997 16.093 7.05997 19.457 11 19.952V22.021H13V19.951C13.778 19.852 14.524 19.646 15.218 19.34L13.66 17.782C13.133 17.934 12.577 18.021 12 18.021C8.69097 18.021 5.99997 15.329 5.99997 12.021Z" fill="#1A1A1A"/>
<path d="M8.01074 12.1318C8.07074 14.2468 9.77274 15.9488 11.8877 16.0088L8.01074 12.1318Z" fill="#1A1A1A"/>
</svg>
