<?xml version="1.0" standalone="no"?>
<!DOCTYPE svg PUBLIC "-//W3C//DTD SVG 20010904//EN"
 "http://www.w3.org/TR/2001/REC-SVG-20010904/DTD/svg10.dtd">
<svg version="1.0" xmlns="http://www.w3.org/2000/svg"
 width="1024.000000pt" height="1024.000000pt" viewBox="0 0 1024.000000 1024.000000"
 preserveAspectRatio="xMidYMid meet">

<g transform="translate(0.000000,1024.000000) scale(0.100000,-0.100000)"
fill="#000000" stroke="none">
<path d="M5150 8454 c-163 -154 -255 -368 -281 -656 -33 -357 81 -745 328
-1122 88 -134 144 -210 358 -481 377 -478 476 -631 572 -878 92 -240 112 -524
53 -775 -41 -173 -160 -360 -262 -411 l-43 -21 -5 187 c-6 178 -8 193 -38 280
-82 240 -221 446 -607 903 -439 520 -579 710 -693 936 -97 194 -122 307 -122
552 0 98 -4 183 -9 191 -22 35 -185 -137 -253 -265 -152 -291 -169 -700 -43
-1052 89 -246 227 -464 542 -857 268 -334 315 -397 413 -547 149 -226 243
-448 287 -673 24 -128 24 -373 0 -480 -36 -154 -136 -325 -230 -392 l-44 -32
-2 77 c-3 115 -26 197 -91 329 -94 189 -272 450 -584 853 -521 673 -711 960
-751 1133 -11 49 -13 52 -41 49 -40 -5 -344 -101 -525 -167 -927 -337 -1505
-798 -1645 -1313 -25 -94 -29 -252 -9 -357 32 -161 80 -275 179 -420 263 -385
783 -716 1486 -943 797 -259 1784 -355 2720 -267 727 69 1415 248 1945 505
434 211 769 483 957 776 119 185 182 436 158 630 -14 112 -23 147 -66 261
-169 443 -702 854 -1454 1121 -166 59 -425 136 -570 168 -69 15 -131 33 -138
39 -10 9 -10 23 3 76 51 219 -37 540 -241 880 -90 149 -187 287 -374 529 -306
398 -412 541 -496 666 -90 136 -199 346 -234 452 -33 100 -50 243 -50 420 0
136 -2 162 -15 162 -8 0 -46 -30 -85 -66z"/>
</g>
</svg>
