<svg width="24" height="24" viewBox="0 0 24 24" fill="none" xmlns="http://www.w3.org/2000/svg">
<path fill-rule="evenodd" clip-rule="evenodd" d="M8.33329 1.53324C7.32546 1.53324 6.35892 1.9336 5.64628 2.64623C4.93364 3.35887 4.53329 4.32542 4.53329 5.33324C4.53329 6.34106 4.93364 7.30761 5.64628 8.02024C5.90391 8.27787 6.19472 8.49469 6.50867 8.66653C6.19469 8.83838 5.90385 9.05521 5.6462 9.31286C4.93356 10.0255 4.5332 10.992 4.5332 11.9999C4.5332 13.0077 4.93356 13.9742 5.6462 14.6869C5.90385 14.9445 6.19469 15.1614 6.50867 15.3332C6.19469 15.505 5.90385 15.7219 5.6462 15.9795C4.93356 16.6922 4.5332 17.6587 4.5332 18.6665C4.5332 19.6744 4.93356 20.6409 5.6462 21.3535C6.35884 22.0662 7.32538 22.4665 8.3332 22.4665C9.34103 22.4665 10.3076 22.0662 11.0202 21.3535C11.7328 20.6409 12.1332 19.6744 12.1332 18.6665V14.4943C12.1907 14.5604 12.2506 14.6246 12.3129 14.6869C13.0255 15.3995 13.992 15.7999 14.9999 15.7999C16.0077 15.7999 16.9742 15.3995 17.6869 14.6869C18.3995 13.9742 18.7999 13.0077 18.7999 11.9999C18.7999 10.992 18.3995 10.0255 17.6869 9.31286C17.4292 9.05521 17.1384 8.83839 16.8244 8.66654C17.1384 8.49469 17.4292 8.27786 17.6869 8.02021C18.3995 7.30757 18.7999 6.34103 18.7999 5.3332C18.7999 4.32538 18.3995 3.35884 17.6869 2.6462C16.9742 1.93356 16.0077 1.5332 14.9999 1.5332L8.33329 1.53324ZM12.1332 9.50542V9.13324L12.5054 9.1332C12.4394 9.19066 12.3752 9.25057 12.3129 9.31286C12.2506 9.37516 12.1907 9.43939 12.1332 9.50542ZM11.1999 9.13324V14.8665L8.3332 14.8665C7.57292 14.8665 6.84377 14.5645 6.30616 14.0269C5.76856 13.4893 5.46654 12.7602 5.46654 11.9999C5.46654 11.2396 5.76856 10.5104 6.30616 9.97283C6.84124 9.43775 7.56607 9.13605 8.32249 9.13322C8.32609 9.13323 8.32969 9.13324 8.33329 9.13324H11.1999ZM11.1999 8.19987V2.46657H8.33329C7.573 2.46657 6.84385 2.7686 6.30625 3.3062C5.76864 3.8438 5.46662 4.57295 5.46662 5.33324C5.46662 6.09353 5.76864 6.82267 6.30625 7.36028C6.84131 7.89534 7.56611 8.19704 8.3225 8.19989C8.32607 8.19988 8.32964 8.19987 8.3332 8.19987H11.1999ZM12.1332 11.9999C12.1332 12.7602 12.4352 13.4893 12.9728 14.0269C13.5104 14.5645 14.2396 14.8665 14.9999 14.8665C15.7602 14.8665 16.4893 14.5645 17.0269 14.0269C17.5645 13.4893 17.8665 12.7602 17.8665 11.9999C17.8665 11.2396 17.5645 10.5104 17.0269 9.97283C16.4893 9.43523 15.7602 9.1332 14.9999 9.1332C14.2396 9.1332 13.5104 9.43523 12.9728 9.97283C12.4352 10.5104 12.1332 11.2396 12.1332 11.9999ZM11.1999 15.7999H8.3332C7.57292 15.7999 6.84377 16.1019 6.30616 16.6395C5.76856 17.1771 5.46654 17.9062 5.46654 18.6665C5.46654 19.4268 5.76856 20.156 6.30616 20.6936C6.84377 21.2312 7.57292 21.5332 8.3332 21.5332C9.09349 21.5332 9.82264 21.2312 10.3602 20.6936C10.8978 20.156 11.1999 19.4268 11.1999 18.6665V15.7999ZM12.1333 2.46654V8.19987H14.9999C15.7602 8.19987 16.4893 7.89785 17.0269 7.36024C17.5645 6.82264 17.8665 6.09349 17.8665 5.3332C17.8665 4.57292 17.5645 3.84377 17.0269 3.30616C16.4893 2.76856 15.7602 2.46654 14.9999 2.46654H12.1333Z" fill="#1A1A1A"/>
</svg>
