<svg width="24" height="24" viewBox="0 0 24 24" fill="none" xmlns="http://www.w3.org/2000/svg">
<path d="M12 1.99301C6.486 1.99401 2 6.48001 2 11.994C2 17.507 6.486 21.993 12 21.994C17.514 21.994 22 17.508 22 11.994C22 6.48001 17.515 1.99401 12 1.99301ZM12 19.994C7.589 19.993 4 16.404 4 11.994C4 7.58301 7.589 3.99401 12 3.99301C16.411 3.99401 20 7.58301 20 11.994C20 16.405 16.411 19.994 12 19.994Z" fill="#1A1A1A"/>
<path d="M12.9992 8H10.9992V12H7.99023L11.9952 16.005L15.9992 12H12.9992V8Z" fill="#1A1A1A"/>
</svg>
