<svg width="24" height="24" viewBox="0 0 24 24" fill="none" xmlns="http://www.w3.org/2000/svg">
<path d="M5.00391 20C5.00391 21.103 5.90091 22 7.00391 22H17.0039C18.1069 22 19.0039 21.103 19.0039 20V8H21.0039V6H18.0039H17.0039V4C17.0039 2.897 16.1069 2 15.0039 2H9.00391C7.90091 2 7.00391 2.897 7.00391 4V6H6.00391H3.00391V8H5.00391V20ZM9.00391 4H15.0039V6H9.00391V4ZM8.00391 8H16.0039H17.0039L17.0049 20H7.00391V8H8.00391Z" fill="#1A1A1A"/>
<path d="M9.00391 10H11.0039V18H9.00391V10ZM13.0039 10H15.0039V18H13.0039V10Z" fill="#1A1A1A"/>
</svg>
