<svg width="24" height="24" viewBox="0 0 24 24" fill="none" xmlns="http://www.w3.org/2000/svg">
<path d="M17.75 2L13.6893 6.06066L14.75 7.12132L17 4.87132V10.8107H18.5V4.87132L20.75 7.12132L21.8107 6.06066L17.75 2Z" fill="#1A1A1A"/>
<path d="M3.75001 3.31066L3.75 4.06066L3 4.0607C2.99999 3.86178 3.079 3.67101 3.21966 3.53034C3.36031 3.38968 3.55109 3.31066 3.75001 3.31066Z" fill="#1A1A1A"/>
<path d="M3.75 4.06066L3.75001 3.31066L12.5001 3.31067V4.81067L4.50004 4.81067L4.50011 19.3107H12.5001V20.8107H3.7504C3.33618 20.8107 3.00015 20.4749 3.00013 20.0607L3 4.0607L3.75 4.06066Z" fill="#1A1A1A"/>
<path d="M18.5 13.3107V19.25L20.75 17L21.8107 18.0607L17.75 22.1213L13.6893 18.0607L14.75 17L17 19.25V13.3107H18.5Z" fill="#1A1A1A"/>
</svg>
