<svg width="24" height="24" viewBox="0 0 24 24" fill="none" xmlns="http://www.w3.org/2000/svg">
<path d="M4.00212 21C4.08312 21 4.16412 20.99 4.24412 20.97L8.24412 19.97C8.42012 19.926 8.58112 19.835 8.70912 19.707L21.0021 7.414C21.3801 7.036 21.5881 6.534 21.5881 6C21.5881 5.466 21.3801 4.964 21.0021 4.586L19.4161 3C18.6601 2.244 17.3441 2.244 16.5881 3L4.29512 15.293C4.16712 15.421 4.07612 15.582 4.03212 15.757L3.03212 19.757C2.94612 20.098 3.04712 20.458 3.29512 20.707C3.48412 20.897 3.74012 21 4.00212 21ZM18.0021 4.414L19.5881 6L18.0021 7.586L16.4161 6L18.0021 4.414ZM5.90512 16.511L15.0021 7.414L16.5881 9L7.49012 18.097L5.37612 18.625L5.90512 16.511Z" fill="#1A1A1A"/>
</svg>
