<svg width="24" height="24" viewBox="0 0 24 24" fill="none" xmlns="http://www.w3.org/2000/svg">
<path fill-rule="evenodd" clip-rule="evenodd" d="M4.75 3.25V4.76H3.25V3.25H4.75ZM8.75 3.25V4.76H7.25V3.25H8.75ZM12.75 3.25V4.76H11.25V3.25H12.75ZM16.75 3.25V4.76H15.25V3.25H16.75ZM20.75 3.25V20.75H19.25V3.25H20.75ZM4.75 7.25V8.76H3.25V7.25H4.75ZM12.75 7.25V8.76H11.25V7.25H12.75ZM4.75 11.25V12.76H3.25V11.25H4.75ZM8.75 11.25V12.76H7.25V11.25H8.75ZM12.75 11.25V12.76H11.25V11.25H12.75ZM16.75 11.25V12.76H15.25V11.25H16.75ZM4.75 15.25V16.76H3.25V15.25H4.75ZM12.75 15.25V16.76H11.25V15.25H12.75ZM4.75 19.25V20.76H3.25V19.25H4.75ZM8.75 19.25V20.76H7.25V19.25H8.75ZM12.75 19.25V20.76H11.25V19.25H12.75ZM16.75 19.25V20.76H15.25V19.25H16.75Z" fill="#1A1A1A"/>
</svg>
