<svg width="24" height="24" viewBox="0 0 24 24" fill="none" xmlns="http://www.w3.org/2000/svg">
<path d="M21.707 20.293L19.684 18.27C21.124 16.584 21.999 14.424 21.999 12C21.999 7.909 19.527 4.547 16 3V5C18.387 6.386 19.999 9.047 19.999 12C19.999 13.832 19.37 15.543 18.327 16.913L17.042 15.628C17.644 14.536 18 13.19 18 12C18 10.229 17.225 8.1 16 7V14.586L14 12.586V4C14 3.631 13.797 3.292 13.472 3.118C13.148 2.944 12.752 2.964 12.446 3.168L7.727 6.313L3.707 2.293L2.293 3.707L20.293 21.707L21.707 20.293ZM12 5.868V10.586L9.169 7.755L12 5.868ZM4 17H6.697L12.445 20.832C12.612 20.943 12.806 21 13 21C13.162 21 13.324 20.961 13.472 20.882C13.797 20.708 14 20.369 14 20V18.121L12 16.121V18.132L7.555 15.168C7.53 15.151 7.499 15.148 7.473 15.135C7.412 15.102 7.35 15.077 7.283 15.057C7.219 15.038 7.157 15.025 7.091 15.019C7.059 15.016 7.032 15 7 15H4V9H4.879L3.102 7.223C2.451 7.554 2 8.222 2 9V15C2 16.103 2.897 17 4 17Z" fill="#1A1A1A"/>
</svg>
