<svg width="24" height="24" viewBox="0 0 24 24" fill="none" xmlns="http://www.w3.org/2000/svg">
<path d="M20.9778 13.21C21.0618 12.82 20.9058 12.418 20.5818 12.186L6.58183 2.18599C6.26083 1.95599 5.83183 1.93699 5.49183 2.13899C5.14983 2.33999 4.96083 2.72399 5.00683 3.11699L7.00683 20.117C7.05383 20.515 7.33383 20.847 7.71983 20.96C7.81283 20.987 7.90583 21 7.99983 21C8.29483 21 8.58083 20.869 8.77383 20.633L12.3858 16.217L15.7628 21.677L17.4638 20.625L14.1068 15.197L20.1958 13.979C20.5868 13.902 20.8948 13.6 20.9778 13.21ZM12.3038 13.52C12.0768 13.565 11.8728 13.688 11.7258 13.867L8.71783 17.544L7.25683 5.12699L17.5398 12.472L12.3038 13.52Z" fill="#1A1A1A"/>
</svg>
