<svg width="24" height="24" viewBox="0 0 24 24" fill="none" xmlns="http://www.w3.org/2000/svg">
<path d="M22 5C22 3.346 20.654 2 19 2H5C3.346 2 2 3.346 2 5V7.831C2 8.884 2.382 9.841 3 10.577V19C3 20.103 3.897 21 5 21H9H15H19C20.103 21 21 20.103 21 19V10.576C21.618 9.841 22 8.884 22 7.83V5ZM20 5V7.831C20 8.971 19.151 9.943 18.109 9.998L18 10C16.897 10 16 9.103 16 8V4H19C19.552 4 20 4.449 20 5ZM10 4H14V8C14 9.103 13.103 10 12 10C10.897 10 10 9.103 10 8V4ZM4 5C4 4.449 4.448 4 5 4H8V8C8 9.103 7.103 10 6 10L5.891 9.997C4.849 9.943 4 8.971 4 7.831V5ZM10 19V16H14V19H10ZM16 19V16C16 14.897 15.103 14 14 14H10C8.897 14 8 14.897 8 16V19H5V11.869C5.254 11.936 5.517 11.98 5.787 11.994C7.068 12.061 8.224 11.523 9 10.643C9.733 11.475 10.807 12 12 12C13.193 12 14.267 11.475 15 10.643C15.776 11.523 16.934 12.062 18.213 11.994C18.484 11.98 18.746 11.936 19 11.869V19H16Z" fill="#1A1A1A"/>
</svg>
