<svg width="24" height="24" viewBox="0 0 24 24" fill="none" xmlns="http://www.w3.org/2000/svg">
<path d="M21 3H5C4.447 3 4 3.447 4 4V6.59C4 7.113 4.213 7.627 4.583 7.997L10 13.414V21C10 21.347 10.18 21.668 10.475 21.851C10.635 21.95 10.817 22 11 22C11.153 22 11.306 21.965 11.447 21.895L15.447 19.895C15.786 19.725 16 19.379 16 19V13.414L21.417 7.997C21.787 7.627 22 7.113 22 6.59V4C22 3.447 21.553 3 21 3ZM14.293 12.293C14.105 12.48 14 12.734 14 13V18.382L12 19.382V13C12 12.734 11.895 12.48 11.707 12.293L6 6.59V5H20.001L20.003 6.583L14.293 12.293Z" fill="#1A1A1A"/>
</svg>
