<svg width="24" height="24" viewBox="0 0 24 24" fill="none" xmlns="http://www.w3.org/2000/svg">
<path d="M12.0062 2.00699C9.33122 2.00699 6.81922 3.04499 4.93522 4.92999C1.03722 8.82799 1.03722 15.172 4.93522 19.072C6.82022 20.957 9.33122 21.995 12.0062 21.995C14.6812 21.995 17.1932 20.957 19.0772 19.072C22.9752 15.173 22.9752 8.82899 19.0772 4.92999C17.1922 3.04499 14.6812 2.00699 12.0062 2.00699ZM17.6632 17.657C16.1562 19.164 14.1472 19.994 12.0062 19.994C9.86522 19.994 7.85622 19.164 6.34922 17.657C3.23122 14.538 3.23122 9.46299 6.34922 6.34399C7.85622 4.83699 9.86622 4.00699 12.0062 4.00699C14.1462 4.00699 16.1562 4.83699 17.6632 6.34399C20.7812 9.46299 20.7812 14.538 17.6632 17.657Z" fill="#1A1A1A"/>
<path d="M14.3459 8.24701L11.1309 11.462L9.00586 9.33701V15H14.6689L12.5449 12.876L15.7599 9.66101L14.3459 8.24701Z" fill="#1A1A1A"/>
</svg>
