<svg width="24" height="24" viewBox="0 0 24 24" fill="none" xmlns="http://www.w3.org/2000/svg">
<path d="M21.948 11.684L19.948 5.684C19.813 5.275 19.431 5 19 5H16V7H18.279L19.613 11H15C13.897 11 13 11.897 13 13H11C11 11.897 10.103 11 9 11H4.387L5.721 7H8V5H5C4.569 5 4.188 5.275 4.052 5.684L2.052 11.684L2.064 11.688C2.029 11.787 2 11.889 2 12V16C2 17.654 3.346 19 5 19H8C9.654 19 11 17.654 11 16V15H13V16C13 17.654 14.346 19 16 19H19C20.654 19 22 17.654 22 16V12C22 11.889 21.971 11.787 21.937 11.687L21.948 11.684ZM9 16C9 16.551 8.552 17 8 17H5C4.448 17 4 16.551 4 16V13H9V16ZM20 16C20 16.551 19.552 17 19 17H16C15.448 17 15 16.551 15 16V13H20V16Z" fill="#1A1A1A"/>
</svg>
