<svg width="24" height="24" viewBox="0 0 24 24" fill="none" xmlns="http://www.w3.org/2000/svg">
<path d="M15.0004 3H8.98438H4.98438C3.88138 3 2.98438 3.897 2.98438 5V9V15.016V19.016C2.98438 20.119 3.88138 21.016 4.98438 21.016H8.98438H15.0004H19.0004C20.1034 21.016 21.0004 20.119 21.0004 19.016V15.016V9V5C21.0004 3.897 20.1034 3 19.0004 3H15.0004ZM19.0004 8H16.0004V5H19.0004V8ZM4.98438 10H7.98438V14.016H4.98438V10ZM9.98438 10H14.0004V14.016H9.98438V10ZM16.0004 10H19.0004V14.016H16.0004V10ZM14.0004 5V8H9.98438V5H14.0004ZM7.98438 5V8H4.98438V5H7.98438ZM4.98438 16.016H7.98438V19.016H4.98438V16.016ZM9.98438 19.016V16.016H14.0004V19.016H9.98438ZM16.0004 19.016V16.016H19.0014V19.016H16.0004Z" fill="#1A1A1A"/>
</svg>
