<svg width="24" height="24" viewBox="0 0 24 24" fill="none" xmlns="http://www.w3.org/2000/svg">
<path d="M4 11H10C10.553 11 11 10.552 11 10V4C11 3.448 10.553 3 10 3H4C3.447 3 3 3.448 3 4V10C3 10.552 3.447 11 4 11ZM5 5H9V9H5V5ZM20 3H14C13.447 3 13 3.448 13 4V10C13 10.552 13.447 11 14 11H20C20.553 11 21 10.552 21 10V4C21 3.448 20.553 3 20 3ZM19 9H15V5H19V9ZM10 21C10.553 21 11 20.553 11 20V14C11 13.447 10.553 13 10 13H4C3.447 13 3 13.447 3 14V20C3 20.553 3.447 21 4 21H10ZM5 15H9V19H5V15ZM18 14H16V16H14V18H16V20H18V18H20V16H18V14Z" fill="#1A1A1A"/>
</svg>
