<svg width="24" height="24" viewBox="0 0 24 24" fill="none" xmlns="http://www.w3.org/2000/svg">
<path fill-rule="evenodd" clip-rule="evenodd" d="M6.09647 3.05427L4.85401 4.29673H12.1882L10.9457 3.05427L12 2L15.0422 5.04221L12 8.08441L10.9457 7.03015L12.1882 5.78768H4.85401L6.09647 7.03015L5.04221 8.08441L2 5.04221L5.04221 2L6.09647 3.05427ZM18.9578 8.95779L22 12L20.9457 13.0543L19.7033 11.8118V19.146L20.9457 17.9035L22 18.9578L18.9578 22L15.9156 18.9578L16.9699 17.9035L18.2123 19.146V11.8118L16.9699 13.0543L15.9156 12L18.9578 8.95779ZM5.04221 10.7575C4.71268 10.7575 4.39666 10.8884 4.16365 11.1214C3.93064 11.3545 3.79974 11.6705 3.79974 12V18.9578C3.79974 19.2873 3.93064 19.6033 4.16365 19.8363C4.39666 20.0694 4.71268 20.2003 5.04221 20.2003H12C12.3295 20.2003 12.6455 20.0694 12.8786 19.8363C13.1116 19.6033 13.2425 19.2873 13.2425 18.9578V12C13.2425 11.6705 13.1116 11.3545 12.8786 11.1214C12.6455 10.8884 12.3295 10.7575 12 10.7575H5.04221ZM3.10939 10.0672C3.622 9.55457 4.31726 9.26658 5.04221 9.26658H12C12.7249 9.26658 13.4202 9.55457 13.9328 10.0672C14.4454 10.5798 14.7334 11.2751 14.7334 12V18.9578C14.7334 19.6827 14.4454 20.378 13.9328 20.8906C13.4202 21.4032 12.7249 21.6912 12 21.6912H5.04221C4.31726 21.6912 3.622 21.4032 3.10939 20.8906C2.59677 20.378 2.30879 19.6827 2.30879 18.9578V12C2.30879 11.2751 2.59677 10.5798 3.10939 10.0672Z" fill="#1A1A1A"/>
</svg>
