<svg width="24" height="24" viewBox="0 0 24 24" fill="none" xmlns="http://www.w3.org/2000/svg">
<path fill-rule="evenodd" clip-rule="evenodd" d="M21 3.5L19 3.5L19 20.5L21 20.5L21 22L15.5 22L15.5 20.5L17.5 20.5L17.5 3.5L15.5 3.5L15.5 2L21 2L21 3.5ZM11.75 2C12.1642 2 12.5 2.33579 12.5 2.75L12.5 21.2494C12.5 21.6636 12.1642 22 11.75 22L3.75 22C3.33579 22 3 21.6642 3 21.25L3 2.75086C3 2.33664 3.33577 2.00004 3.74998 2.00002L11.75 2ZM11 17.5L8 17.5L8 19L11 19L11 20.5L4.5 20.5L4.5 3.5L11 3.5L11 5L8 5L8 6.5L11 6.5L11 8L9 8L9 9.5L11 9.5L11 11L8 11L8 12.5L11 12.5L11 14L9 14L9 15.5L11 15.5L11 17.5Z" fill="#1A1A1A"/>
</svg>
