<svg width="24" height="24" viewBox="0 0 24 24" fill="none" xmlns="http://www.w3.org/2000/svg">
<path d="M18.944 11.112C18.507 7.67 15.56 5 12 5C9.244 5 6.85 6.611 5.757 9.15C3.609 9.792 2 11.82 2 14C2 16.757 4.243 19 7 19H18C20.206 19 22 17.206 22 15C22 13.12 20.695 11.538 18.944 11.112ZM18 17H7C5.346 17 4 15.654 4 14C4 12.596 5.199 11.244 6.673 10.985L7.254 10.883L7.446 10.325C8.149 8.274 9.895 7 12 7C14.757 7 17 9.243 17 12V13H18C19.103 13 20 13.897 20 15C20 16.103 19.103 17 18 17Z" fill="#1A1A1A"/>
</svg>
