<svg width="24" height="24" viewBox="0 0 24 24" fill="none" xmlns="http://www.w3.org/2000/svg">
<path d="M12.0062 2.00699C9.33022 2.00699 6.81922 3.04399 4.93522 4.92899C1.03722 8.82799 1.03722 15.172 4.93522 19.071C6.82022 20.956 9.33122 21.994 12.0062 21.994C14.6812 21.994 17.1932 20.956 19.0772 19.071C22.9752 15.173 22.9752 8.82899 19.0772 4.92899C17.1922 3.04399 14.6822 2.00699 12.0062 2.00699ZM17.6632 17.656C16.1562 19.163 14.1462 19.993 12.0062 19.993C9.86622 19.993 7.85622 19.163 6.34922 17.656C3.23122 14.537 3.23122 9.46199 6.34922 6.34299C7.85622 4.83599 9.86522 4.00699 12.0062 4.00699C14.1472 4.00699 16.1562 4.83599 17.6632 6.34299C20.7812 9.46199 20.7812 14.537 17.6632 17.656Z" fill="#1A1A1A"/>
<path d="M11.4679 11.125L8.25391 14.339L9.66791 15.753L12.8819 12.539L15.0069 14.663V9H9.34391L11.4679 11.125Z" fill="#1A1A1A"/>
</svg>
