<svg width="24" height="24" viewBox="0 0 24 24" fill="none" xmlns="http://www.w3.org/2000/svg">
<path d="M20.92 2.384C20.857 2.368 19.364 2 17.496 2C14.911 2 12.833 2.713 11.485 4.061C9.997 5.549 8.857 6.712 8.31 7.273C7.096 7.136 4.233 7.07 2.293 9.011C2.105 9.198 2 9.452 2 9.718C2 9.984 2.105 10.238 2.293 10.425L13.606 21.738C13.794 21.926 14.047 22.031 14.313 22.031C14.579 22.031 14.833 21.926 15.02 21.738C16.974 19.785 16.914 16.924 16.787 15.728L19.971 12.545C23.162 9.354 21.711 3.363 21.648 3.11C21.559 2.753 21.278 2.473 20.92 2.384ZM18.557 11.132L15.021 14.667C14.785 14.903 14.682 15.242 14.748 15.57C14.753 15.595 15.155 17.812 14.212 19.514L4.517 9.82C6.217 8.882 8.458 9.316 8.465 9.316C8.795 9.386 9.149 9.28 9.388 9.033C9.391 9.03 10.794 7.58 12.9 5.474C14.118 4.256 16.071 4 17.496 4C18.443 4 19.289 4.111 19.828 4.203C20.072 5.634 20.453 9.235 18.557 11.132Z" fill="#1A1A1A"/>
<path d="M15.7285 10.304C16.8331 10.304 17.7285 9.40857 17.7285 8.304C17.7285 7.19943 16.8331 6.304 15.7285 6.304C14.6239 6.304 13.7285 7.19943 13.7285 8.304C13.7285 9.40857 14.6239 10.304 15.7285 10.304Z" fill="#1A1A1A"/>
<path d="M5 16C3 17 3 21 3 21C3 21 6 21 8 19L5 16Z" fill="#1A1A1A"/>
</svg>
