<svg width="24" height="24" viewBox="0 0 24 24" fill="none" xmlns="http://www.w3.org/2000/svg">
<path d="M4 17H6.697L12.445 20.832C12.612 20.943 12.806 21 13 21C13.162 21 13.324 20.961 13.472 20.882C13.797 20.708 14 20.369 14 20V3.99999C14 3.63099 13.797 3.29199 13.472 3.11799C13.148 2.94399 12.752 2.96399 12.446 3.16799L6.697 6.99999H4C2.897 6.99999 2 7.89699 2 8.99999V15C2 16.103 2.897 17 4 17ZM4 8.99999H7C7.033 8.99999 7.061 8.98399 7.093 8.98099C7.157 8.97499 7.218 8.96099 7.281 8.94299C7.348 8.92199 7.411 8.89799 7.472 8.86499C7.498 8.85099 7.529 8.84799 7.554 8.83199L12 5.86799V18.132L7.555 15.168C7.53 15.15 7.499 15.148 7.473 15.135C7.412 15.102 7.351 15.077 7.284 15.057C7.22 15.038 7.157 15.025 7.091 15.019C7.059 15.016 7.032 15 7 15H4V8.99999ZM16 6.99999V17C17.225 15.9 18 13.771 18 12C18 10.229 17.225 8.09999 16 6.99999Z" fill="#1A1A1A"/>
</svg>
