<svg width="24" height="24" viewBox="0 0 24 24" fill="none" xmlns="http://www.w3.org/2000/svg">
<path d="M21.598 11.064C21.355 10.88 21.041 10.817 20.744 10.892C20.458 10.966 20.222 11 20 11C18.346 11 17 9.654 16.997 8.063C17.002 8.029 17.013 7.927 17.014 7.893C17.027 7.576 16.888 7.272 16.641 7.074C16.393 6.875 16.066 6.803 15.76 6.887C15.467 6.964 15.226 7 15 7C13.346 7 12 5.654 12 4C12 3.783 12.031 3.556 12.099 3.284C12.177 2.969 12.097 2.636 11.885 2.39C11.674 2.145 11.367 2.021 11.032 2.048C5.883 2.544 2 6.822 2 12C2 17.514 6.486 22 12 22C17.514 22 22 17.514 22 12C22 11.951 21.997 11.903 21.993 11.84C21.986 11.535 21.841 11.249 21.598 11.064ZM12 20C7.589 20 4 16.411 4 12C4 8.277 6.509 5.136 10.006 4.25C10.137 6.892 12.327 9 15 9C15.033 9 15.066 9 15.101 8.999C15.561 11.259 17.55 12.97 19.938 12.999C19.444 16.941 16.073 20 12 20Z" fill="#1A1A1A"/>
<path d="M12.5 13C13.3284 13 14 12.3284 14 11.5C14 10.6716 13.3284 10 12.5 10C11.6716 10 11 10.6716 11 11.5C11 12.3284 11.6716 13 12.5 13Z" fill="#1A1A1A"/>
<path d="M8.5 10C9.32843 10 10 9.32843 10 8.5C10 7.67157 9.32843 7 8.5 7C7.67157 7 7 7.67157 7 8.5C7 9.32843 7.67157 10 8.5 10Z" fill="#1A1A1A"/>
<path d="M7.5 14C8.32843 14 9 13.3284 9 12.5C9 11.6716 8.32843 11 7.5 11C6.67157 11 6 11.6716 6 12.5C6 13.3284 6.67157 14 7.5 14Z" fill="#1A1A1A"/>
<path d="M15.5 17C16.3284 17 17 16.3284 17 15.5C17 14.6716 16.3284 14 15.5 14C14.6716 14 14 14.6716 14 15.5C14 16.3284 14.6716 17 15.5 17Z" fill="#1A1A1A"/>
<path d="M10.5 18C11.3284 18 12 17.3284 12 16.5C12 15.6716 11.3284 15 10.5 15C9.67157 15 9 15.6716 9 16.5C9 17.3284 9.67157 18 10.5 18Z" fill="#1A1A1A"/>
</svg>
