<svg width="24" height="24" viewBox="0 0 24 24" fill="none" xmlns="http://www.w3.org/2000/svg">
<path d="M7.49805 11C8.32647 11 8.99805 10.3284 8.99805 9.5C8.99805 8.67157 8.32647 8 7.49805 8C6.66962 8 5.99805 8.67157 5.99805 9.5C5.99805 10.3284 6.66962 11 7.49805 11Z" fill="#1A1A1A"/>
<path d="M10.498 14L8.99805 12L5.99805 16H8.99805H11.998H17.998L13.498 10L10.498 14Z" fill="#1A1A1A"/>
<path d="M19.998 4H3.99805C2.89505 4 1.99805 4.897 1.99805 6V18C1.99805 19.103 2.89505 20 3.99805 20H19.998C21.101 20 21.998 19.103 21.998 18V6C21.998 4.897 21.101 4 19.998 4ZM3.99805 18V6H19.998L20 18H3.99805Z" fill="#1A1A1A"/>
</svg>
