<svg width="24" height="24" viewBox="0 0 24 24" fill="none" xmlns="http://www.w3.org/2000/svg">
<path d="M10 6.5C10 4.57 8.43 3 6.5 3C4.57 3 3 4.57 3 6.5C3 8.43 4.57 10 6.5 10C7.085 10 7.628 9.842 8.113 9.587L10.47 12.115L8.152 14.433C7.658 14.166 7.101 14 6.5 14C4.57 14 3 15.57 3 17.5C3 19.43 4.57 21 6.5 21C8.43 21 10 19.43 10 17.5C10 16.899 9.834 16.342 9.566 15.848L11.835 13.58L17 19.121C17.563 19.684 18.326 20 19.121 20H22L9.35 8.518C9.756 7.946 10 7.253 10 6.5ZM6.5 8C5.673 8 5 7.327 5 6.5C5 5.673 5.673 5 6.5 5C7.327 5 8 5.673 8 6.5C8 7.327 7.327 8 6.5 8ZM6.5 19C5.673 19 5 18.327 5 17.5C5 16.673 5.673 16 6.5 16C7.327 16 8 16.673 8 17.5C8 18.327 7.327 19 6.5 19Z" fill="#1A1A1A"/>
<path d="M17 4.879L13.293 9.293L14.707 10.707L22 4H19.121C18.326 4 17.563 4.316 17 4.879Z" fill="#1A1A1A"/>
</svg>
