<svg width="24" height="24" viewBox="0 0 24 24" fill="none" xmlns="http://www.w3.org/2000/svg">
<path d="M11.975 22H12C15.859 22 19 18.86 19 15V9C19 5.159 15.873 2.026 12.019 2C12.013 2 12.006 2 12 2C11.998 2 11.984 2 11.982 2C11.973 2 11.966 2 11.959 2C8.119 2.022 5 5.157 5 9V15C5 18.86 8.129 22 11.975 22ZM7 9C7 6.249 9.238 4.006 11.985 4C14.75 4.006 17 6.249 17 9V15C17 17.757 14.757 20 12 20H11.975C9.186 20 7 17.804 7 15V9Z" fill="#1A1A1A"/>
<path d="M11 6H13V12H11V6Z" fill="#1A1A1A"/>
</svg>
