<svg width="24" height="24" viewBox="0 0 24 24" fill="none" xmlns="http://www.w3.org/2000/svg">
<path d="M17.8127 3.838C17.4387 3.313 16.8307 3 16.1867 3H7.81266C7.16866 3 6.56066 3.313 6.14566 3.899L2.14566 10.48C1.91666 10.857 1.96066 11.34 2.25666 11.668L11.2567 21.668C11.4457 21.88 11.7167 22 11.9997 22C12.2827 22 12.5537 21.88 12.7427 21.669L21.7427 11.669C22.0387 11.341 22.0837 10.857 21.8537 10.481L17.8127 3.838ZM11.9997 19.505L5.24466 12H18.7537L11.9997 19.505ZM4.77666 10L7.81266 5L16.1447 4.938L19.2217 10H4.77666Z" fill="#1A1A1A"/>
</svg>
