<svg width="24" height="24" viewBox="0 0 24 24" fill="none" xmlns="http://www.w3.org/2000/svg">
<path d="M17 6C18.1046 6 19 5.10457 19 4C19 2.89543 18.1046 2 17 2C15.8954 2 15 2.89543 15 4C15 5.10457 15.8954 6 17 6Z" fill="#1A1A1A"/>
<path d="M15.777 10.969C16.153 11.532 16.785 11.859 17.443 11.859C17.603 11.859 17.765 11.839 17.925 11.799L21.241 10.97L20.758 9.02997L17.442 9.85897L16.063 7.79197C15.772 7.35297 15.307 7.04097 14.791 6.93797L10.945 6.16797C10.057 5.98697 9.167 6.43297 8.764 7.23497L7.106 10.551L8.895 11.446L10.553 8.12897L12.52 8.52297L7.434 17H3V19H7.434C8.132 19 8.789 18.628 9.149 18.029L11.067 14.833L16.236 15.867L18.052 21.316L19.948 20.683L18.133 15.235C17.907 14.556 17.331 14.047 16.627 13.905L13.588 13.298L15.36 10.344L15.777 10.969Z" fill="#1A1A1A"/>
</svg>
