<svg width="24" height="24" viewBox="0 0 24 24" fill="none" xmlns="http://www.w3.org/2000/svg">
<path d="M12.0005 4.595C10.8965 3.589 9.48847 3.037 8.00447 3.037C6.42647 3.037 4.93247 3.66 3.79147 4.795C1.43847 7.158 1.43947 10.854 3.79347 13.207L11.1255 20.539C11.2955 20.838 11.6235 21.031 12.0005 21.031C12.3225 21.031 12.6095 20.868 12.7925 20.622L20.2075 13.207C22.5615 10.853 22.5615 7.158 20.2055 4.791C19.0685 3.66 17.5745 3.037 15.9965 3.037C14.5135 3.037 13.1045 3.589 12.0005 4.595ZM18.7915 6.205C20.3545 7.776 20.3555 10.23 18.7935 11.793L12.0005 18.586L5.20747 11.793C3.64547 10.23 3.64647 7.776 5.20547 6.209C5.96547 5.453 6.95947 5.037 8.00447 5.037C9.04947 5.037 10.0395 5.453 10.7935 6.207L11.2935 6.707C11.6845 7.098 12.3165 7.098 12.7075 6.707L13.2075 6.207C14.7195 4.698 17.2815 4.702 18.7915 6.205Z" fill="#1A1A1A"/>
</svg>
