<svg width="24" height="24" viewBox="0 0 24 24" fill="none" xmlns="http://www.w3.org/2000/svg">
<path d="M21.7109 20.296L19.9249 18.51C19.9699 18.347 20.0009 18.178 20.0009 18V11H18.0009V16.586L7.41488 5.99999H13.0009V3.99999H6.00087C5.82288 3.99999 5.65387 4.03099 5.49087 4.07599L3.71088 2.29599L2.29688 3.70999L20.2969 21.71L21.7109 20.296ZM4.00087 8.12099V18C4.00087 19.103 4.89787 20 6.00087 20H15.8799L13.8799 18H6.00087V10.121L4.00087 8.12099Z" fill="#1A1A1A"/>
<path d="M18 9C19.6569 9 21 7.65685 21 6C21 4.34315 19.6569 3 18 3C16.3431 3 15 4.34315 15 6C15 7.65685 16.3431 9 18 9Z" fill="#1A1A1A"/>
</svg>
