<svg width="24" height="24" viewBox="0 0 24 24" fill="none" xmlns="http://www.w3.org/2000/svg">
<path d="M19 2H5C3.897 2 3 2.897 3 4V16C3 17.103 3.897 18 5 18H8.586L12 21.414L15.414 18H19C20.103 18 21 17.103 21 16V4C21 2.897 20.103 2 19 2ZM19 16H14.586L12 18.586L9.414 16H5V4H19V16Z" fill="#1A1A1A"/>
<path d="M15 12C16.1046 12 17 11.1046 17 10C17 8.89543 16.1046 8 15 8C13.8954 8 13 8.89543 13 10C13 11.1046 13.8954 12 15 12Z" fill="#1A1A1A"/>
<path d="M9 12C10.1046 12 11 11.1046 11 10C11 8.89543 10.1046 8 9 8C7.89543 8 7 8.89543 7 10C7 11.1046 7.89543 12 9 12Z" fill="#1A1A1A"/>
</svg>
