<svg width="24" height="24" viewBox="0 0 24 24" fill="none" xmlns="http://www.w3.org/2000/svg">
<path d="M9.00033 22H10.0003V20H9.01133C8.70333 19.994 6.00033 19.827 6.00033 16C6.00033 14.007 5.33533 12.754 4.49833 12C5.33533 11.246 6.00033 9.993 6.00033 8C6.00033 4.173 8.70333 4.006 9.00033 4H10.0003V2H8.99833C7.26933 2.004 4.00033 3.264 4.00033 8C4.00033 10.8 2.32233 10.99 1.98633 11L2.00033 13C2.08233 13 4.00033 13.034 4.00033 16C4.00033 20.736 7.26933 21.996 9.00033 22ZM22.0003 11C21.9183 11 20.0003 10.966 20.0003 8C20.0003 3.264 16.7313 2.004 15.0003 2H14.0003V4H14.9893C15.2973 4.006 18.0003 4.173 18.0003 8C18.0003 9.993 18.6653 11.246 19.5023 12C18.6653 12.754 18.0003 14.007 18.0003 16C18.0003 19.827 15.2973 19.994 15.0003 20H14.0003V22H15.0023C16.7313 21.996 20.0003 20.736 20.0003 16C20.0003 13.2 21.6783 13.01 22.0143 13L22.0003 11Z" fill="#1A1A1A"/>
</svg>
