<svg width="24" height="24" viewBox="0 0 24 24" fill="none" xmlns="http://www.w3.org/2000/svg">
<path d="M15.5347 2.808C14.7787 2.052 13.4627 2.052 12.7067 2.808L2.80766 12.707C2.02766 13.486 2.02766 14.756 2.80766 15.535L8.46466 21.192C8.84266 21.57 9.34466 21.778 9.87866 21.778C10.4127 21.778 10.9147 21.57 11.2927 21.192L21.1917 11.293C21.5697 10.915 21.7777 10.413 21.7777 9.879C21.7777 9.345 21.5697 8.843 21.1917 8.465L15.5347 2.808ZM9.87866 19.778V20.778V19.778L4.22166 14.121L14.1207 4.222L19.7777 9.879L9.87866 19.778Z" fill="#1A1A1A"/>
<path d="M9 16C9.55228 16 10 15.5523 10 15C10 14.4477 9.55228 14 9 14C8.44772 14 8 14.4477 8 15C8 15.5523 8.44772 16 9 16Z" fill="#1A1A1A"/>
<path d="M15.707 21.7073L14.2928 20.2931L20.2927 14.2934L21.7069 15.7076L15.707 21.7073Z" fill="#1A1A1A"/>
<path d="M8.29297 2.29269L9.70716 3.70693L3.70725 9.70663L2.29306 8.29239L8.29297 2.29269Z" fill="#1A1A1A"/>
</svg>
