<svg width="24" height="24" viewBox="0 0 24 24" fill="none" xmlns="http://www.w3.org/2000/svg">
<path d="M20.9954 6.89999C20.9614 6.55799 20.7544 6.25799 20.4474 6.10499L12.4474 2.10499C12.1664 1.96399 11.8344 1.96399 11.5524 2.10499L3.55243 6.10499C3.24643 6.25899 3.03943 6.55899 3.00543 6.89999C2.99443 7.00699 2.04443 17.667 11.5944 21.914C11.7234 21.972 11.8614 22 12.0004 22C12.1394 22 12.2774 21.972 12.4064 21.914C21.9564 17.667 21.0064 7.00799 20.9954 6.89999ZM12.0004 19.897C5.23143 16.625 4.91143 9.64199 4.96643 7.63499L12.0004 4.11799L19.0294 7.63299C19.0664 9.62199 18.7014 16.651 12.0004 19.897Z" fill="#1A1A1A"/>
<path d="M11 12.586L8.70697 10.293L7.29297 11.707L11 15.414L16.707 9.707L15.293 8.293L11 12.586Z" fill="#1A1A1A"/>
</svg>
