<svg width="24" height="24" viewBox="0 0 24 24" fill="none" xmlns="http://www.w3.org/2000/svg">
<path d="M4.22152 19.778C5.19652 20.753 6.47652 21.24 7.75652 21.24C9.03752 21.239 10.3185 20.753 11.2925 19.778L14.1205 16.949L12.7065 15.535L9.87852 18.364C8.70952 19.531 6.80652 19.533 5.63552 18.364C4.46652 17.194 4.46652 15.291 5.63552 14.121L8.46452 11.293L7.05052 9.879L4.22152 12.707C2.27252 14.656 2.27252 17.829 4.22152 19.778ZM19.7775 11.293C21.7255 9.344 21.7255 6.171 19.7775 4.222C17.8275 2.272 14.6545 2.274 12.7065 4.222L9.87852 7.051L11.2925 8.465L14.1205 5.636C15.2905 4.469 17.1935 4.467 18.3635 5.636C19.5325 6.806 19.5325 8.709 18.3635 9.879L15.5345 12.707L16.9485 14.121L19.7775 11.293Z" fill="#1A1A1A"/>
<path d="M8.46387 16.9504L7.04968 15.5362L15.5358 7.05036L16.95 8.4646L8.46387 16.9504Z" fill="#1A1A1A"/>
</svg>
