<svg width="24" height="24" viewBox="0 0 24 24" fill="none" xmlns="http://www.w3.org/2000/svg">
<path d="M11.001 10H13.001V15H11.001V10ZM11 16H13V18H11V16Z" fill="#1A1A1A"/>
<path d="M13.7689 4.2C13.4209 3.545 12.7429 3.138 12.0009 3.138C11.2589 3.138 10.5809 3.545 10.2329 4.201L2.89489 18.064C2.56389 18.69 2.58389 19.425 2.94889 20.032C3.31389 20.638 3.95389 21 4.66189 21H19.3399C20.0479 21 20.6889 20.638 21.0539 20.032C21.4179 19.426 21.4389 18.69 21.1079 18.064L13.7689 4.2ZM4.66189 19L12.0009 5.137L19.3449 19H4.66189Z" fill="#1A1A1A"/>
</svg>
