<svg width="24" height="24" viewBox="0 0 24 24" fill="none" xmlns="http://www.w3.org/2000/svg">
<path d="M20.5631 3.34C20.2711 3.141 19.8961 3.111 19.5741 3.261L2.57408 11.261C2.21908 11.429 1.99508 11.788 2.00008 12.18C2.00608 12.572 2.24008 12.925 2.60008 13.082L8.00008 15.445V22.167L13.8361 17.999L18.6001 20.083C18.7281 20.14 18.8651 20.167 19.0001 20.167C19.1811 20.167 19.3601 20.118 19.5201 20.021C19.7981 19.852 19.9771 19.558 19.9991 19.233L20.9991 4.233C21.0211 3.879 20.8561 3.54 20.5631 3.34ZM18.0971 17.68L12.8281 15.374L16.0001 9.167L8.35108 13.417L5.41908 12.134L18.8901 5.794L18.0971 17.68Z" fill="#1A1A1A"/>
</svg>
