<svg width="24" height="24" viewBox="0 0 24 24" fill="none" xmlns="http://www.w3.org/2000/svg">
<path d="M2 11H7V13H2V11ZM17 11H22V13H17V11ZM11 17H13V22H11V17ZM11 2H13V7H11V2Z" fill="#1A1A1A"/>
<path d="M4.22168 5.63672L5.63587 4.22248L9.17146 7.75795L7.75727 9.17219L4.22168 5.63672Z" fill="#1A1A1A"/>
<path d="M19.7783 18.3633L18.3641 19.7775L14.8285 16.242L16.2427 14.8278L19.7783 18.3633Z" fill="#1A1A1A"/>
<path d="M7.75781 14.8281L9.172 16.2424L5.63641 19.7778L4.22222 18.3636L7.75781 14.8281Z" fill="#1A1A1A"/>
<path d="M14.8281 7.75684L18.3642 4.2218L19.7782 5.63621L16.2421 9.17125L14.8281 7.75684Z" fill="#1A1A1A"/>
</svg>
