<svg width="24" height="24" viewBox="0 0 24 24" fill="none" xmlns="http://www.w3.org/2000/svg">
<path d="M12.001 1.99301C6.486 1.99401 2 6.48001 2 11.994C2.001 17.508 6.487 21.994 12 21.994C17.515 21.994 22.001 17.508 22.001 11.994C22.001 6.48001 17.515 1.99401 12.001 1.99301ZM12 19.994C7.59 19.994 4.001 16.405 4 11.994C4 7.58301 7.589 3.99401 12.001 3.99301C16.412 3.99401 20.001 7.58301 20.001 11.994C20.001 16.405 16.412 19.994 12 19.994Z" fill="#1A1A1A"/>
<path d="M12.0011 8.00101L7.99609 12.006H11.0011V16H13.0011V12.006H16.0051L12.0011 8.00101Z" fill="#1A1A1A"/>
</svg>
