<svg width="24" height="24" viewBox="0 0 24 24" fill="none" xmlns="http://www.w3.org/2000/svg">
<path d="M20.4806 6.10499L12.4806 2.10499C12.1996 1.96399 11.8676 1.96399 11.5856 2.10499L3.58563 6.10499C3.27963 6.25899 3.07263 6.55899 3.03863 6.89999C3.02763 7.00699 2.07763 17.667 11.6276 21.914C11.7566 21.972 11.8956 22 12.0336 22C12.1716 22 12.3106 21.972 12.4396 21.914C21.9896 17.667 21.0396 7.00799 21.0286 6.89999C20.9946 6.55899 20.7876 6.25899 20.4806 6.10499ZM12.0336 19.897C5.26563 16.625 4.94463 9.64199 4.99963 7.63499L12.0336 4.11799L19.0626 7.63299C19.1006 9.62199 18.7346 16.651 12.0336 19.897Z" fill="#1A1A1A"/>
<path d="M14.293 8.293L12 10.586L9.70697 8.293L8.29297 9.707L10.586 12L8.29297 14.293L9.70697 15.707L12 13.414L14.293 15.707L15.707 14.293L13.414 12L15.707 9.707L14.293 8.293Z" fill="#1A1A1A"/>
</svg>
