<svg width="24" height="24" viewBox="0 0 24 24" fill="none" xmlns="http://www.w3.org/2000/svg">
<path d="M5.00391 22H9.00391H15.0039H19.0039C20.1069 22 21.0039 21.103 21.0039 20V11C21.0039 10.735 20.8989 10.48 20.7109 10.293L12.7109 2.293C12.3199 1.902 11.6879 1.902 11.2969 2.293L3.29691 10.293C3.10891 10.48 3.00391 10.735 3.00391 11V20C3.00391 21.103 3.90091 22 5.00391 22ZM10.0039 20V15H14.0039V20H10.0039ZM5.00391 11.414L12.0039 4.414L19.0039 11.414L19.0049 20H16.0039V15C16.0039 13.897 15.1069 13 14.0039 13H10.0039C8.90091 13 8.00391 13.897 8.00391 15V20H5.00391V11.414Z" fill="#1A1A1A"/>
</svg>
