<svg width="24" height="24" viewBox="0 0 24 24" fill="none" xmlns="http://www.w3.org/2000/svg">
<path d="M12 16C14.206 16 16 14.206 16 12C16 9.794 14.206 8 12 8C9.794 8 8 9.794 8 12C8 14.206 9.794 16 12 16ZM12 10C13.084 10 14 10.916 14 12C14 13.084 13.084 14 12 14C10.916 14 10 13.084 10 12C10 10.916 10.916 10 12 10Z" fill="#1A1A1A"/>
<path d="M2.84425 16.136L3.84425 17.866C4.37525 18.783 5.65325 19.127 6.57425 18.596L7.10325 18.29C7.68525 18.747 8.32425 19.122 8.99925 19.402V20C8.99925 21.103 9.89625 22 10.9992 22H12.9992C14.1022 22 14.9992 21.103 14.9992 20V19.402C15.6742 19.122 16.3132 18.747 16.8952 18.291L17.4242 18.597C18.3472 19.127 19.6222 18.785 20.1552 17.866L21.1542 16.137C21.7062 15.182 21.3782 13.956 20.4232 13.405L19.9182 13.113C19.9722 12.742 19.9992 12.371 19.9992 12C19.9992 11.629 19.9722 11.257 19.9182 10.889L20.4232 10.597C21.3782 10.045 21.7062 8.82 21.1542 7.865L20.1552 6.136C19.6242 5.216 18.3472 4.871 17.4242 5.404L16.8952 5.71C16.3132 5.253 15.6742 4.878 14.9992 4.598V4C14.9992 2.897 14.1022 2 12.9992 2H10.9992C9.89625 2 8.99925 2.897 8.99925 4V4.598C8.32425 4.878 7.68525 5.253 7.10325 5.709L6.57425 5.403C5.65025 4.872 4.37425 5.216 3.84325 6.135L2.84425 7.864C2.29225 8.819 2.62025 10.045 3.57525 10.596L4.08025 10.888C4.02625 11.257 3.99925 11.629 3.99925 12C3.99925 12.371 4.02625 12.742 4.08025 13.111L3.57525 13.403C2.62025 13.955 2.29225 15.181 2.84425 16.136ZM6.17025 13.378C6.05725 12.925 5.99925 12.461 5.99925 12C5.99925 11.538 6.05725 11.074 6.16925 10.622C6.27725 10.189 6.08625 9.737 5.69925 9.514L4.57625 8.864L5.57425 7.135L6.71925 7.797C7.10325 8.018 7.58625 7.962 7.90725 7.655C8.59025 7.008 9.41425 6.524 10.2912 6.256C10.7122 6.128 10.9992 5.739 10.9992 5.3V4H12.9992V5.3C12.9992 5.739 13.2862 6.128 13.7072 6.256C14.5842 6.525 15.4082 7.008 16.0912 7.655C16.4122 7.962 16.8973 8.017 17.2793 7.797L18.4232 7.136L19.4232 8.865L18.2992 9.514C17.9122 9.738 17.7212 10.19 17.8292 10.622C17.9412 11.074 17.9992 11.538 17.9992 12C17.9992 12.461 17.9412 12.925 17.8282 13.378C17.7212 13.811 17.9122 14.263 18.2992 14.486L19.4222 15.135L18.4242 16.864L17.2793 16.203C16.8962 15.982 16.4122 16.037 16.0912 16.345C15.4082 16.992 14.5842 17.476 13.7072 17.744C13.2862 17.872 12.9992 18.261 12.9992 18.7L13.0012 20H10.9992V18.7C10.9992 18.261 10.7122 17.872 10.2912 17.744C9.41425 17.475 8.59025 16.992 7.90725 16.345C7.71725 16.163 7.46925 16.07 7.21925 16.07C7.04725 16.07 6.87525 16.114 6.71925 16.204L5.57525 16.866L4.57525 15.137L5.69925 14.486C6.08625 14.263 6.27725 13.811 6.17025 13.378Z" fill="#1A1A1A"/>
</svg>
