<svg width="24" height="24" viewBox="0 0 24 24" fill="none" xmlns="http://www.w3.org/2000/svg">
<path d="M13.464 6C14.894 6 16.243 6.613 17.263 7.726L18.738 6.374C17.334 4.843 15.461 4 13.464 4C11.466 4 9.594 4.843 8.192 6.375C7.491 7.139 6.951 8.031 6.589 9H4V11H6.114C6.076 11.33 6.05 11.663 6.05 12C6.05 12.337 6.076 12.67 6.114 13H4V15H6.589C6.951 15.97 7.49 16.861 8.192 17.626C9.594 19.157 11.466 20 13.464 20C15.461 20 17.334 19.157 18.737 17.626L17.262 16.274C16.243 17.387 14.894 18 13.464 18C12.034 18 10.686 17.388 9.666 16.274C9.316 15.893 9.041 15.457 8.801 15H13V13H8.139C8.089 12.672 8.05 12.34 8.05 12C8.05 11.66 8.089 11.328 8.139 11H13V9H8.801C9.041 8.543 9.317 8.107 9.666 7.726C10.686 6.613 12.034 6 13.464 6Z" fill="#1A1A1A"/>
</svg>
