<svg width="24" height="24" viewBox="0 0 24 24" fill="none" xmlns="http://www.w3.org/2000/svg">
<path fill-rule="evenodd" clip-rule="evenodd" d="M8 10C8 7.72 9.72 6 12 6C14.28 6 16 7.72 16 10C16 12.28 14.28 14 12 14C9.72 14 8 12.28 8 10Z" fill="#1A1A1A"/>
<path fill-rule="evenodd" clip-rule="evenodd" d="M2 12C2 6.579 6.579 2 12 2C17.421 2 22 6.579 22 12C22 15.19 20.408 18.078 18 19.924V20H17.898C16.23 21.245 14.187 22 12 22C9.813 22 7.77 21.245 6.102 20H6V19.924C3.592 18.078 2 15.189 2 12ZM13 14.573C15.072 14.573 16.853 15.841 17.61 17.641C19.077 16.182 20 14.176 20 12C20 7.663 16.337 4 12 4C7.663 4 4 7.663 4 12C4 14.176 4.923 16.182 6.39 17.641C7.146 15.842 8.928 14.573 11 14.573H13Z" fill="#1A1A1A"/>
</svg>
