<svg width="24" height="24" viewBox="0 0 24 24" fill="none" xmlns="http://www.w3.org/2000/svg">
<path d="M13.3994 2.096C10.0414 1.638 6.67045 2.9 4.46245 5.427C2.56445 7.603 1.70145 10.509 2.09545 13.4C2.62545 17.294 5.55345 20.607 9.38045 21.646C10.2444 21.881 11.1254 22 11.9984 22L12.1404 21.999C13.1724 21.983 14.1134 21.45 14.6564 20.573C15.1974 19.697 15.2554 18.62 14.8094 17.694L14.6104 17.278C14.1924 16.41 14.4894 15.708 14.7044 15.366C15.2434 14.508 16.3314 14.156 17.2804 14.611L17.6924 14.808C18.1045 15.006 18.5424 15.107 18.9934 15.107C20.6264 15.107 21.9744 13.776 21.9994 12.14C22.0134 11.22 21.8944 10.291 21.6464 9.38C20.6064 5.554 17.2934 2.626 13.3994 2.096ZM18.5574 13.005L18.1454 12.808C16.3174 11.93 14.0754 12.61 13.0104 14.302C12.2724 15.478 12.1974 16.878 12.8064 18.144L13.0054 18.56C13.1564 18.874 13.1384 19.224 12.9544 19.521C12.7694 19.82 12.4624 19.995 12.1104 20H11.9984C11.3024 20 10.5974 19.904 9.90345 19.717C6.84045 18.886 4.50045 16.238 4.07745 13.131C3.75645 10.776 4.42945 8.508 5.97045 6.742C7.49045 5 9.68845 4 11.9994 4C12.3734 4 12.7534 4.026 13.1304 4.078C16.2374 4.501 18.8854 6.842 19.7164 9.904C19.9144 10.634 20.0094 11.378 19.9984 12.111C19.9865 12.918 19.1535 13.294 18.5574 13.005Z" fill="#1A1A1A"/>
<path d="M7.5 16C8.32843 16 9 15.3284 9 14.5C9 13.6716 8.32843 13 7.5 13C6.67157 13 6 13.6716 6 14.5C6 15.3284 6.67157 16 7.5 16Z" fill="#1A1A1A"/>
<path d="M7.5 12C8.32843 12 9 11.3284 9 10.5C9 9.67157 8.32843 9 7.5 9C6.67157 9 6 9.67157 6 10.5C6 11.3284 6.67157 12 7.5 12Z" fill="#1A1A1A"/>
<path d="M10.5 9C11.3284 9 12 8.32843 12 7.5C12 6.67157 11.3284 6 10.5 6C9.67157 6 9 6.67157 9 7.5C9 8.32843 9.67157 9 10.5 9Z" fill="#1A1A1A"/>
<path d="M14.5 9C15.3284 9 16 8.32843 16 7.5C16 6.67157 15.3284 6 14.5 6C13.6716 6 13 6.67157 13 7.5C13 8.32843 13.6716 9 14.5 9Z" fill="#1A1A1A"/>
</svg>
