<svg width="24" height="24" viewBox="0 0 24 24" fill="none" xmlns="http://www.w3.org/2000/svg">
<path d="M12 8V13H17V11H14V8H12Z" fill="#1A1A1A"/>
<path d="M21.292 8.49662C21.066 7.96163 20.787 7.44663 20.463 6.96763C20.141 6.48963 19.772 6.04163 19.364 5.63463C18.956 5.22763 18.51 4.85963 18.032 4.53663C17.55 4.21063 17.035 3.93263 16.504 3.70763C15.959 3.47763 15.39 3.30063 14.814 3.18263C13.633 2.93963 12.37 2.93863 11.188 3.18263C10.609 3.30063 10.041 3.47763 9.498 3.70663C8.967 3.93163 8.453 4.20963 7.969 4.53663C7.492 4.85863 7.043 5.22863 6.636 5.63563C6.229 6.04263 5.859 6.49163 5.537 6.96763C5.211 7.45163 4.932 7.96563 4.708 8.49563C4.478 9.03963 4.301 9.60862 4.183 10.1856C4.062 10.7776 4 11.3876 4 11.9996C4 12.0076 4.001 12.0166 4.001 12.0246H2L5 15.9996L8 12.0246H6.001C6.001 12.0166 6 12.0076 6 11.9996C6 11.5226 6.048 11.0476 6.142 10.5876C6.234 10.1386 6.371 9.69762 6.55 9.27462C6.724 8.86262 6.941 8.46163 7.195 8.08663C7.445 7.71563 7.733 7.36763 8.05 7.04963C8.367 6.73163 8.716 6.44463 9.086 6.19463C9.462 5.94063 9.863 5.72362 10.276 5.54862C10.697 5.36963 11.139 5.23263 11.589 5.14062C12.508 4.95162 13.493 4.95263 14.412 5.14062C14.859 5.23263 15.302 5.36963 15.725 5.54862C16.138 5.72263 16.538 5.94062 16.913 6.19263C17.283 6.44362 17.633 6.73163 17.95 7.04862C18.267 7.36462 18.554 7.71363 18.805 8.08563C19.057 8.45763 19.274 8.85763 19.45 9.27462C19.628 9.69162 19.764 10.1326 19.858 10.5856C19.952 11.0486 20 11.5236 20 11.9996C20 12.4756 19.952 12.9506 19.858 13.4096C19.764 13.8646 19.628 14.3056 19.45 14.7236C19.274 15.1396 19.057 15.5386 18.804 15.9126C18.554 16.2836 18.267 16.6326 17.95 16.9486C17.633 17.2656 17.283 17.5536 16.914 17.8036C16.538 18.0566 16.139 18.2746 15.725 18.4496C15.302 18.6286 14.86 18.7656 14.412 18.8576C13.494 19.0456 12.51 19.0466 11.589 18.8576C11.14 18.7656 10.699 18.6286 10.276 18.4496C9.864 18.2756 9.463 18.0586 9.088 17.8046C8.717 17.5546 8.369 17.2666 8.051 16.9496L6.637 18.3636C7.044 18.7716 7.492 19.1406 7.969 19.4626C8.452 19.7886 8.967 20.0676 9.497 20.2916C10.041 20.5216 10.61 20.6986 11.187 20.8166C11.778 20.9376 12.388 20.9996 13 20.9996C13.612 20.9996 14.223 20.9376 14.813 20.8166C15.39 20.6986 15.959 20.5226 16.503 20.2926C17.035 20.0676 17.55 19.7886 18.034 19.4616C18.51 19.1396 18.957 18.7706 19.364 18.3636C19.771 17.9566 20.14 17.5086 20.462 17.0326C20.787 16.5526 21.066 16.0376 21.292 15.5036C21.52 14.9656 21.697 14.3976 21.817 13.8116C21.938 13.2196 22 12.6096 22 11.9996C22 11.3896 21.938 10.7796 21.817 10.1856C21.697 9.60162 21.52 9.03363 21.292 8.49662Z" fill="#1A1A1A"/>
</svg>
