<svg width="24" height="24" viewBox="0 0 24 24" fill="none" xmlns="http://www.w3.org/2000/svg">
<path d="M7 17.013L11.413 16.998L21.045 7.458C21.423 7.08 21.631 6.578 21.631 6.044C21.631 5.51 21.423 5.008 21.045 4.63L19.459 3.044C18.703 2.288 17.384 2.292 16.634 3.041L7 12.583V17.013ZM18.045 4.458L19.634 6.041L18.037 7.623L16.451 6.038L18.045 4.458ZM9 13.417L15.03 7.444L16.616 9.03L10.587 15.001L9 15.006V13.417Z" fill="#1A1A1A"/>
<path d="M5 21H19C20.103 21 21 20.103 21 19V10.332L19 12.332V19H8.158C8.132 19 8.105 19.01 8.079 19.01C8.046 19.01 8.013 19.001 7.979 19H5V5H11.847L13.847 3H5C3.897 3 3 3.897 3 5V19C3 20.103 3.897 21 5 21Z" fill="#1A1A1A"/>
</svg>
