<svg width="24" height="24" viewBox="0 0 24 24" fill="none" xmlns="http://www.w3.org/2000/svg">
<path d="M16.6046 11.048C17.2086 10.019 17.4766 8.82003 17.3556 7.60803C17.1766 5.82403 16.1806 4.24703 14.5526 3.16803L13.4476 4.83403C14.5666 5.57603 15.2476 6.63303 15.3656 7.80803C15.4756 8.91303 15.0856 10.002 14.2936 10.794L13.1016 11.986L14.7196 12.461C18.9516 13.701 19.0006 17.957 19.0006 18H21.0006C21.0006 16.211 20.0446 12.715 16.6046 11.048Z" fill="#1A1A1A"/>
<path d="M9.5 12C11.706 12 13.5 10.206 13.5 8C13.5 5.794 11.706 4 9.5 4C7.294 4 5.5 5.794 5.5 8C5.5 10.206 7.294 12 9.5 12ZM9.5 6C10.603 6 11.5 6.897 11.5 8C11.5 9.103 10.603 10 9.5 10C8.397 10 7.5 9.103 7.5 8C7.5 6.897 8.397 6 9.5 6ZM11 13H8C4.691 13 2 15.691 2 19V20H4V19C4 16.794 5.794 15 8 15H11C13.206 15 15 16.794 15 19V20H17V19C17 15.691 14.309 13 11 13Z" fill="#1A1A1A"/>
</svg>
