<svg width="24" height="24" viewBox="0 0 24 24" fill="none" xmlns="http://www.w3.org/2000/svg">
<path d="M20.707 5.826L17.172 2.293C16.784 1.904 16.155 1.902 15.764 2.287L7.096 10.82C6.961 10.954 6.866 11.123 6.823 11.308L5.799 15.745L4 18H6.828L7.97 16.871L11.558 16.043C11.738 16.001 11.903 15.91 12.035 15.781L20.702 7.246C20.892 7.059 20.999 6.804 21 6.537C21.001 6.27 20.896 6.015 20.707 5.826ZM11.338 13.659L9.217 11.539L16.46 4.408L18.58 6.528L11.338 13.659ZM4 20H20V22H4V20Z" fill="#1A1A1A"/>
</svg>
