<svg width="24" height="24" viewBox="0 0 24 24" fill="none" xmlns="http://www.w3.org/2000/svg">
<path d="M8.11053 21.889C9.71253 21.889 11.2185 21.265 12.3525 20.132L20.1305 12.354C22.4695 10.014 22.4695 6.208 20.1305 3.869C18.9965 2.736 17.4895 2.112 15.8875 2.112C14.2855 2.112 12.7795 2.736 11.6455 3.869L3.86753 11.647C1.52853 13.987 1.52853 17.793 3.86753 20.132C5.00153 21.265 6.50853 21.889 8.11053 21.889ZM5.28153 13.061L13.0595 5.283C13.8155 4.528 14.8195 4.112 15.8875 4.112C16.9565 4.112 17.9605 4.528 18.7165 5.283C20.2755 6.843 20.2755 9.381 18.7165 10.94L10.9385 18.718C10.1825 19.473 9.17853 19.889 8.11053 19.889C7.04153 19.889 6.03753 19.473 5.28153 18.718C3.72353 17.158 3.72353 14.62 5.28153 13.061Z" fill="#1A1A1A"/>
<path d="M9 13C9.55228 13 10 12.5523 10 12C10 11.4477 9.55228 11 9 11C8.44772 11 8 11.4477 8 12C8 12.5523 8.44772 13 9 13Z" fill="#1A1A1A"/>
<path d="M15 13C15.5523 13 16 12.5523 16 12C16 11.4477 15.5523 11 15 11C14.4477 11 14 11.4477 14 12C14 12.5523 14.4477 13 15 13Z" fill="#1A1A1A"/>
<path d="M12 16C12.5523 16 13 15.5523 13 15C13 14.4477 12.5523 14 12 14C11.4477 14 11 14.4477 11 15C11 15.5523 11.4477 16 12 16Z" fill="#1A1A1A"/>
<path d="M12 10C12.5523 10 13 9.55228 13 9C13 8.44772 12.5523 8 12 8C11.4477 8 11 8.44772 11 9C11 9.55228 11.4477 10 12 10Z" fill="#1A1A1A"/>
</svg>
