<svg width="24" height="24" viewBox="0 0 24 24" fill="none" xmlns="http://www.w3.org/2000/svg">
<path d="M11.998 1.99301C6.48505 1.99401 1.99905 6.48001 1.99805 11.994C1.99805 17.508 6.48405 21.994 11.999 21.994C17.513 21.993 21.999 17.507 21.999 11.994C21.999 6.48001 17.513 1.99401 11.998 1.99301ZM11.999 19.994C7.58705 19.994 3.99805 16.405 3.99805 11.994C3.99905 7.58301 7.58805 3.99401 11.998 3.99301C16.41 3.99401 19.999 7.58301 19.999 11.994C19.999 16.404 16.41 19.993 11.999 19.994Z" fill="#1A1A1A"/>
<path d="M12.0128 7.98901L8.00781 11.994L12.0128 15.998V12.994H16.0068V10.994H12.0128V7.98901Z" fill="#1A1A1A"/>
</svg>
