<svg width="24" height="24" viewBox="0 0 24 24" fill="none" xmlns="http://www.w3.org/2000/svg">
<path d="M12 2C6.486 2 2 6.486 2 12C2 17.514 6.486 22 12 22C17.514 22 22 17.514 22 12C22 6.486 17.514 2 12 2ZM19.931 11H17.167C17.051 8.835 16.437 6.7 15.375 4.757C17.813 5.898 19.582 8.228 19.931 11ZM12.53 4.027C13.565 5.391 14.957 7.807 15.157 11H9.03C9.169 8.404 10.024 5.972 11.481 4.026C11.653 4.016 11.825 4 12 4C12.179 4 12.354 4.016 12.53 4.027ZM8.688 4.727C7.704 6.618 7.136 8.762 7.03 11H4.069C4.421 8.204 6.217 5.857 8.688 4.727ZM4.069 13H7.043C7.179 15.379 7.708 17.478 8.599 19.23C6.174 18.084 4.416 15.762 4.069 13ZM11.45 19.973C10.049 18.275 9.222 15.896 9.041 13H15.154C14.946 15.773 14.037 18.196 12.551 19.972C12.369 19.984 12.187 20 12 20C11.814 20 11.633 19.984 11.45 19.973ZM15.461 19.201C16.416 17.407 16.999 15.3 17.152 13H19.93C19.587 15.739 17.854 18.047 15.461 19.201Z" fill="#1A1A1A"/>
</svg>
