<svg width="24" height="24" viewBox="0 0 24 24" fill="none" xmlns="http://www.w3.org/2000/svg">
<path d="M1.29297 8.395L2.70697 9.809C3.21097 9.305 3.75897 8.859 4.32897 8.45L2.89997 7.021C2.33997 7.443 1.79597 7.891 1.29297 8.395ZM6.47397 5.06L3.70697 2.293L2.29297 3.707L20.293 21.707L21.707 20.293L16.695 15.281L17.671 14.306C16.526 13.161 15.086 12.448 13.572 12.158L11.294 9.88C14.083 9.689 16.943 10.628 19.023 12.707L20.437 11.293C17.539 8.394 13.376 7.357 9.54897 8.135L8.02397 6.61C9.29097 6.216 10.625 6 12 6C15.537 6 18.837 7.353 21.293 9.809L22.707 8.395C19.874 5.561 16.071 4 12 4C10.066 4.001 8.20897 4.384 6.47397 5.06ZM3.56297 11.293L4.97697 12.707C5.59897 12.085 6.29597 11.575 7.03497 11.156L5.57597 9.697C4.85897 10.148 4.18097 10.676 3.56297 11.293ZM6.32897 14.307L7.74297 15.721C8.43497 15.029 9.27797 14.57 10.172 14.293L8.61497 12.736C7.78197 13.115 7.00297 13.633 6.32897 14.307ZM13.989 18.11L11.889 16.01C10.838 16.069 9.99997 16.933 9.99997 18C9.99897 19.104 10.895 20 12 20C13.066 20 13.931 19.162 13.989 18.11Z" fill="#1A1A1A"/>
</svg>
