<svg width="64" height="64" viewBox="0 0 64 64" fill="none" xmlns="http://www.w3.org/2000/svg">
<g id="icons / ghost">
<path id="Vector" d="M32 5.33333C18.7653 5.33333 8 16.1013 8 29.3333V50.6667H8.136C8.78933 55.176 12.6427 58.6667 17.3333 58.6667C20.464 58.6667 22.864 57.5547 24.4587 55.536C26.3893 57.4693 29.056 58.6667 32 58.6667C34.96 58.6667 37.6373 57.4507 39.5733 55.4987C41.176 57.5307 43.584 58.6667 46.6667 58.6667C51.8133 58.6667 56 54.48 56 49.3333V29.3333C56 16.1013 45.2347 5.33333 32 5.33333ZM50.6667 49.3333C50.6667 51.5387 48.872 53.3333 46.6667 53.3333C45.4693 53.3333 42.6667 53.3333 42.6667 48V45.3333H37.3333V48C37.3333 50.9413 34.9413 53.3333 32 53.3333C29.0587 53.3333 26.6667 50.9413 26.6667 48V45.3333H21.3333V48C21.3333 52.92 19.2693 53.3333 17.3333 53.3333C15.128 53.3333 13.3333 51.5387 13.3333 49.3333V29.3333C13.3333 19.04 21.7093 10.6667 32 10.6667C42.2907 10.6667 50.6667 19.04 50.6667 29.3333V49.3333Z" fill="#1A1A1A"/>
<path id="Vector_2" d="M24.0003 32C26.9458 32 29.3337 29.6122 29.3337 26.6667C29.3337 23.7211 26.9458 21.3333 24.0003 21.3333C21.0548 21.3333 18.667 23.7211 18.667 26.6667C18.667 29.6122 21.0548 32 24.0003 32Z" fill="#1A1A1A"/>
<path id="Vector_3" d="M40.0003 32C42.9458 32 45.3337 29.6122 45.3337 26.6667C45.3337 23.7211 42.9458 21.3333 40.0003 21.3333C37.0548 21.3333 34.667 23.7211 34.667 26.6667C34.667 29.6122 37.0548 32 40.0003 32Z" fill="#1A1A1A"/>
</g>
</svg>
