<svg width="24" height="24" viewBox="0 0 24 24" fill="none" xmlns="http://www.w3.org/2000/svg">
<path d="M17.6701 14.307C16.1831 12.819 14.1691 12 11.9991 12C9.82912 12 7.81512 12.819 6.32812 14.307L7.74213 15.721C8.85213 14.611 10.3631 13.999 11.9991 13.999C13.6351 14 15.1461 14.611 16.2561 15.721L17.6701 14.307Z" fill="#1A1A1A"/>
<path d="M20.4375 11.292C15.8655 6.71899 8.13645 6.71899 3.56445 11.292L4.97845 12.706C8.78545 8.89899 15.2165 8.89899 19.0235 12.706L20.4375 11.292Z" fill="#1A1A1A"/>
<path d="M12 20C13.1046 20 14 19.1046 14 18C14 16.8954 13.1046 16 12 16C10.8954 16 10 16.8954 10 18C10 19.1046 10.8954 20 12 20Z" fill="#1A1A1A"/>
</svg>
