<svg width="24" height="24" viewBox="0 0 24 24" fill="none" xmlns="http://www.w3.org/2000/svg">
<path d="M16 11.9995V5.99952C16 3.78252 14.215 1.97852 12.021 1.97852C11.952 1.97852 11.881 1.98752 11.812 2.00352C9.693 2.10352 8 3.85652 8 5.99952V11.9995C8 14.2055 9.794 15.9995 12 15.9995C14.206 15.9995 16 14.2055 16 11.9995ZM10 11.9995V5.99952C10 4.89652 10.897 3.99952 12 3.99952C12.055 3.99952 12.109 3.99452 12.163 3.98452C13.188 4.05952 14 4.93452 14 5.99952V11.9995C14 13.1025 13.103 13.9995 12 13.9995C10.897 13.9995 10 13.1025 10 11.9995Z" fill="#1A1A1A"/>
<path d="M6 12H4C4 16.072 7.061 19.436 11 19.931V22H13V19.931C16.939 19.436 20 16.073 20 12H18C18 15.309 15.309 18 12 18C8.691 18 6 15.309 6 12Z" fill="#1A1A1A"/>
</svg>
