<svg width="24" height="24" viewBox="0 0 24 24" fill="none" xmlns="http://www.w3.org/2000/svg">
<path fill-rule="evenodd" clip-rule="evenodd" d="M19.25 4.75008L16.75 4.7501V6.0001C16.75 6.41431 16.4142 6.7501 16 6.7501C15.5858 6.7501 15.25 6.41431 15.25 6.0001V4.7501H12.75V7.0001C12.75 7.41431 12.4142 7.7501 12 7.7501C11.5858 7.7501 11.25 7.41431 11.25 7.0001V4.7501H8.75V6.0001C8.75 6.41431 8.41421 6.7501 8 6.7501C7.58579 6.7501 7.25 6.41431 7.25 6.0001V4.7501L4.75 4.75009V7.2501H6C6.41421 7.2501 6.75 7.58588 6.75 8.0001C6.75 8.41431 6.41421 8.7501 6 8.7501H4.75V11.2501H7C7.41421 11.2501 7.75 11.5859 7.75 12.0001C7.75 12.4143 7.41421 12.7501 7 12.7501H4.75V15.2501H6C6.41421 15.2501 6.75 15.5859 6.75 16.0001C6.75 16.4143 6.41421 16.7501 6 16.7501H4.75L4.75 19.2501H10.25V11.0009L11 11.0001L11 10.2501H19.25V4.75008ZM11 11.0001L11 10.2501C10.5858 10.2501 10.25 10.5867 10.25 11.0009L11 11.0001ZM11.75 11.7501H19.9995C20.4137 11.7501 20.75 11.4143 20.75 11.0001V4.00083C20.75 3.8019 20.671 3.61029 20.5303 3.46963C20.3896 3.32898 20.1988 3.24997 19.9999 3.25L4.00058 3.25005C3.80166 3.25004 3.61035 3.32905 3.46969 3.4697C3.32902 3.61036 3.25 3.80113 3.25 4.00005L3.25001 19.9996C3.25001 20.4138 3.5858 20.7501 4.00002 20.7501H10.9992C11.4134 20.7501 11.75 20.4143 11.75 20.0001V11.7501Z" fill="#1A1A1A"/>
</svg>
