<svg width="24" height="24" viewBox="0 0 24 24" fill="none" xmlns="http://www.w3.org/2000/svg">
<path d="M4 17H6.697L12.445 20.832C12.612 20.943 12.806 21 13 21C13.162 21 13.324 20.961 13.472 20.882C13.797 20.708 14 20.369 14 20V4C14 3.631 13.797 3.292 13.472 3.118C13.148 2.943 12.752 2.964 12.446 3.168L6.697 7H4C2.897 7 2 7.897 2 9V15C2 16.103 2.897 17 4 17ZM4 9H7C7.033 9 7.061 8.984 7.093 8.981C7.157 8.975 7.218 8.961 7.281 8.943C7.348 8.922 7.411 8.898 7.472 8.865C7.498 8.851 7.529 8.848 7.554 8.832L12 5.868V18.132L7.555 15.168C7.53 15.15 7.499 15.148 7.473 15.135C7.412 15.102 7.351 15.077 7.284 15.057C7.22 15.038 7.157 15.025 7.091 15.019C7.059 15.016 7.032 15 7 15H4V9Z" fill="#1A1A1A"/>
</svg>
