<svg width="24" height="24" viewBox="0 0 24 24" fill="none" xmlns="http://www.w3.org/2000/svg">
<path d="M17.868 4.504C17.69 4.192 17.358 4 17 4H3C2.644 4 2.314 4.189 2.135 4.498C1.956 4.807 1.955 5.186 2.132 5.496L5.849 12L2.132 18.504C1.955 18.814 1.956 19.193 2.135 19.502C2.314 19.811 2.644 20 3 20H17C17.358 20 17.69 19.808 17.868 19.496L21.868 12.496C22.044 12.188 22.044 11.811 21.868 11.504L17.868 4.504ZM16.42 18H4.724L7.869 12.496C8.045 12.188 8.045 11.811 7.869 11.504L4.724 6H16.42L19.849 12L16.42 18Z" fill="#1A1A1A"/>
</svg>
