<svg width="24" height="24" viewBox="0 0 24 24" fill="none" xmlns="http://www.w3.org/2000/svg">
<path d="M13 6C14.1046 6 15 5.10457 15 4C15 2.89543 14.1046 2 13 2C11.8954 2 11 2.89543 11 4C11 5.10457 11.8954 6 13 6Z" fill="#1A1A1A"/>
<path d="M13.9785 12.27C14.2235 12.638 14.5895 12.917 15.0095 13.057L17.6845 13.949L18.3175 12.053L15.6425 11.161L13.9795 8.66595C13.7875 8.37795 13.5225 8.14495 13.2105 7.98695L11.7765 7.26995C11.3515 7.05795 10.8635 7.00295 10.3985 7.12095L7.20547 7.91795C6.63947 8.05895 6.16347 8.43895 5.89947 8.96395L4.10547 12.553L5.89447 13.448L7.68847 9.85895L9.91147 9.30295L8.10747 17.649L4.43347 20.176L5.56647 21.824L9.24147 19.296C9.66247 19.006 9.95447 18.571 10.0615 18.071L10.5785 15.683L13.0955 17.571L14.0205 22.196L15.9815 21.803L15.0565 17.176C14.9575 16.692 14.6875 16.263 14.2945 15.97L12.1235 14.342L12.7705 10.457L13.9785 12.27Z" fill="#1A1A1A"/>
</svg>
