<svg width="24" height="24" viewBox="0 0 24 24" fill="none" xmlns="http://www.w3.org/2000/svg">
<path fill-rule="evenodd" clip-rule="evenodd" d="M6.00011 7.93945L10.0608 12.0001L6.00011 16.0608L1.93945 12.0001L6.00011 7.93945ZM4.06077 12.0001L6.00011 13.9395L7.93945 12.0001L6.00011 10.0608L4.06077 12.0001Z" fill="#1A1A1A"/>
<path fill-rule="evenodd" clip-rule="evenodd" d="M18.0001 7.93945L22.0608 12.0001L18.0001 16.0608L13.9395 12.0001L18.0001 7.93945ZM16.0608 12.0001L18.0001 13.9395L19.9395 12.0001L18.0001 10.0608L16.0608 12.0001Z" fill="#1A1A1A"/>
<path fill-rule="evenodd" clip-rule="evenodd" d="M12.0001 1.93945L16.0608 6.00011L12.0001 10.0608L7.93945 6.00011L12.0001 1.93945ZM10.0608 6.00011L12.0001 7.93945L13.9395 6.00011L12.0001 4.06077L10.0608 6.00011Z" fill="#1A1A1A"/>
<path fill-rule="evenodd" clip-rule="evenodd" d="M12.0001 13.9395L16.0608 18.0001L12.0001 22.0608L7.93945 18.0001L12.0001 13.9395ZM10.0608 18.0001L12.0001 19.9395L13.9395 18.0001L12.0001 16.0608L10.0608 18.0001Z" fill="#1A1A1A"/>
</svg>
