<svg width="24" height="24" viewBox="0 0 24 24" fill="none" xmlns="http://www.w3.org/2000/svg">
<path d="M6.99305 12C6.99305 14.761 9.23905 17.007 12 17.007C14.761 17.007 17.007 14.761 17.007 12C17.007 9.239 14.761 6.993 12 6.993C9.23905 6.993 6.99305 9.239 6.99305 12ZM12 8.993C13.658 8.993 15.007 10.342 15.007 12C15.007 13.658 13.658 15.007 12 15.007C10.342 15.007 8.99305 13.658 8.99305 12C8.99305 10.342 10.342 8.993 12 8.993ZM10.998 19H12.998V22H10.998V19ZM10.998 2H12.998V5H10.998V2ZM1.99805 11H4.99805V13H1.99805V11ZM18.998 11H21.998V13H18.998V11Z" fill="#1A1A1A"/>
<path d="M4.21875 18.3634L6.33944 16.2415L7.75407 17.6552L5.63338 19.7772L4.21875 18.3634Z" fill="#1A1A1A"/>
<path d="M16.2402 6.34363L18.3622 4.22156L19.7765 5.63575L17.6545 7.75782L16.2402 6.34363Z" fill="#1A1A1A"/>
<path d="M6.3418 7.75854L4.22111 5.6366L5.63574 4.2228L7.75643 6.34475L6.3418 7.75854Z" fill="#1A1A1A"/>
<path d="M19.7754 18.3635L18.3612 19.7778L16.2391 17.6558L17.6533 16.2415L19.7754 18.3635Z" fill="#1A1A1A"/>
</svg>
