<svg width="24" height="24" viewBox="0 0 24 24" fill="none" xmlns="http://www.w3.org/2000/svg">
<path fill-rule="evenodd" clip-rule="evenodd" d="M6.05405 3.62162C5.69565 3.62162 5.35193 3.764 5.0985 4.01742C4.84508 4.27085 4.7027 4.61457 4.7027 4.97297V12.2703H3.08108V4.97297C3.08108 4.18449 3.3943 3.4283 3.95184 2.87076C4.50939 2.31322 5.26557 2 6.05405 2H19.027C19.8155 2 20.5717 2.31322 21.1292 2.87076C21.6868 3.4283 22 4.18449 22 4.97297V17.9459C22 18.7344 21.6868 19.4906 21.1292 20.0482C20.5717 20.6057 19.8155 20.9189 19.027 20.9189H11.7297V19.2973H19.027C19.3854 19.2973 19.7291 19.1549 19.9826 18.9015C20.236 18.6481 20.3784 18.3043 20.3784 17.9459V4.97297C20.3784 4.61457 20.236 4.27085 19.9826 4.01742C19.7291 3.764 19.3854 3.62162 19.027 3.62162H6.05405ZM13.6216 5.98848L18.0115 10.3784L16.8649 11.525L14.4324 9.09261V15.5135H12.8108V9.09261L10.3784 11.525L9.23172 10.3784L13.6216 5.98848ZM3.89189 16.5946C3.82021 16.5946 3.75147 16.6231 3.70078 16.6738C3.6501 16.7244 3.62162 16.7932 3.62162 16.8649V20.1081C3.62162 20.1798 3.6501 20.2485 3.70078 20.2992C3.75147 20.3499 3.82021 20.3784 3.89189 20.3784H7.13513C7.20682 20.3784 7.27556 20.3499 7.32624 20.2992C7.37693 20.2485 7.40541 20.1798 7.40541 20.1081V16.8649C7.40541 16.7932 7.37693 16.7244 7.32624 16.6738C7.27556 16.6231 7.20682 16.5946 7.13513 16.5946H3.89189ZM2.55412 15.5271C2.90892 15.1723 3.39013 14.973 3.89189 14.973H7.13513C7.63689 14.973 8.1181 15.1723 8.4729 15.5271C8.8277 15.8819 9.02703 16.3631 9.02703 16.8649V20.1081C9.02703 20.6099 8.8277 21.0911 8.4729 21.4459C8.1181 21.8007 7.63689 22 7.13513 22H3.89189C3.39013 22 2.90892 21.8007 2.55412 21.4459C2.19932 21.0911 2 20.6099 2 20.1081V16.8649C2 16.3631 2.19932 15.8819 2.55412 15.5271Z" fill="#1A1A1A"/>
</svg>
