<svg width="24" height="24" viewBox="0 0 24 24" fill="none" xmlns="http://www.w3.org/2000/svg">
<path d="M7.375 16.781L8.625 15.219L4.601 12L8.625 8.78099L7.375 7.21899L2.375 11.219C2.138 11.409 2 11.696 2 12C2 12.304 2.138 12.591 2.375 12.781L7.375 16.781ZM16.625 7.21899L15.375 8.78099L19.399 12L15.375 15.219L16.625 16.781L21.625 12.781C21.862 12.591 22 12.304 22 12C22 11.696 21.862 11.409 21.625 11.219L16.625 7.21899Z" fill="#1A1A1A"/>
<path d="M14.9766 3.21638L10.9771 21.2164L9.02379 20.7824L13.0232 2.78237L14.9766 3.21638Z" fill="#1A1A1A"/>
</svg>
