<svg width="24" height="24" viewBox="0 0 24 24" fill="none" xmlns="http://www.w3.org/2000/svg">
<path d="M15.998 8.5H17.998C17.998 5.663 15.243 4.369 12.998 4.071V2H10.998V4.071C8.75305 4.369 5.99805 5.663 5.99805 8.5C5.99805 11.206 8.66405 12.613 10.998 12.93V17.9C9.55005 17.649 7.99805 16.876 7.99805 15.5H5.99805C5.99805 18.089 8.42305 19.619 10.998 19.936V20.999V22H12.998V20.999V19.93C15.243 19.632 17.998 18.337 17.998 15.5C17.998 12.663 15.243 11.369 12.998 11.071V6.1C14.328 6.339 15.998 7.041 15.998 8.5ZM7.99805 8.5C7.99805 7.041 9.66805 6.339 10.998 6.1V10.899C9.62705 10.646 7.99805 9.897 7.99805 8.5ZM15.998 15.5C15.998 16.959 14.328 17.661 12.998 17.9V13.1C14.328 13.339 15.998 14.041 15.998 15.5Z" fill="#1A1A1A"/>
</svg>
