<svg width="24" height="24" viewBox="0 0 24 24" fill="none" xmlns="http://www.w3.org/2000/svg">
<path d="M11.707 2.293C11.52 2.105 11.265 2 11 2H6C5.735 2 5.48 2.105 5.293 2.293L2.293 5.293C2.105 5.48 2 5.734 2 6V11C2 11.266 2.105 11.52 2.293 11.707L12.293 21.707C12.488 21.902 12.744 22 13 22C13.256 22 13.512 21.902 13.707 21.707L21.707 13.707C22.098 13.316 22.098 12.684 21.707 12.293L11.707 2.293ZM13 19.586L4 10.586V6.414L6.414 4H10.586L19.586 13L13 19.586Z" fill="#1A1A1A"/>
<path d="M8.35208 9.99999C9.26169 9.99999 9.99908 9.26261 9.99908 8.35299C9.99908 7.44338 9.26169 6.70599 8.35208 6.70599C7.44247 6.70599 6.70508 7.44338 6.70508 8.35299C6.70508 9.26261 7.44247 9.99999 8.35208 9.99999Z" fill="#1A1A1A"/>
</svg>
