<svg width="24" height="24" viewBox="0 0 24 24" fill="none" xmlns="http://www.w3.org/2000/svg">
<path d="M2.58667 15.408L6.88567 19.707C7.07267 19.895 7.32667 20 7.59267 20H7.59367H9.59367H9.99367H19.5937V18H12.6357L19.8577 10.778C20.6377 9.999 20.6377 8.729 19.8577 7.95L14.9067 3C14.1277 2.221 12.8577 2.221 12.0787 3L7.32867 7.749L2.57467 12.592C1.80967 13.371 1.81367 14.634 2.58667 15.408ZM13.4927 4.414L18.4427 9.364L15.8567 11.95L10.9067 7L13.4927 4.414ZM8.74967 9.156L9.49267 8.414L14.4427 13.364L9.88567 17.921C9.86067 17.946 9.83867 17.973 9.81667 18H9.59367H8.00667L4.00167 13.993L8.74967 9.156Z" fill="#1A1A1A"/>
</svg>
