<svg width="24" height="24" viewBox="0 0 24 24" fill="none" xmlns="http://www.w3.org/2000/svg">
<path d="M21.993 7.95C21.99 7.878 21.983 7.805 21.964 7.736C21.957 7.711 21.943 7.687 21.934 7.662C21.913 7.605 21.894 7.549 21.864 7.497C21.848 7.47 21.826 7.448 21.807 7.422C21.775 7.377 21.744 7.331 21.705 7.292C21.682 7.27 21.652 7.252 21.627 7.231C21.588 7.199 21.552 7.164 21.507 7.137C21.503 7.134 21.498 7.134 21.493 7.131C21.49 7.129 21.488 7.127 21.485 7.125L12.506 2.135C12.205 1.967 11.839 1.968 11.536 2.134L2.515 7.124C2.512 7.127 2.509 7.131 2.504 7.134C2.501 7.135 2.497 7.136 2.494 7.138C2.459 7.158 2.433 7.187 2.4 7.211C2.364 7.238 2.326 7.262 2.294 7.293C2.264 7.324 2.241 7.36 2.215 7.395C2.188 7.43 2.158 7.461 2.136 7.499C2.11 7.542 2.096 7.591 2.077 7.638C2.063 7.671 2.045 7.702 2.036 7.738C2.017 7.805 2.011 7.877 2.007 7.948C2.006 7.965 2 7.98 2 7.998V7.999V8V16C2 16.363 2.197 16.698 2.515 16.874L11.493 21.861L11.494 21.862C11.495 21.862 11.495 21.862 11.496 21.863L11.516 21.874C11.559 21.898 11.606 21.911 11.651 21.928C11.683 21.941 11.714 21.958 11.748 21.967C11.829 21.988 11.915 22 12 22C12.085 22 12.171 21.988 12.254 21.967C12.287 21.958 12.318 21.941 12.351 21.928C12.396 21.911 12.443 21.899 12.486 21.874L12.506 21.863C12.507 21.862 12.507 21.862 12.508 21.862L12.509 21.861L21.487 16.874C21.803 16.698 22 16.363 22 16V8V7.999V7.998C22 7.981 21.994 7.967 21.993 7.95ZM11.972 11.872L5.058 8.005L7.82 6.477L14.654 10.382L11.972 11.872ZM12.02 4.153L18.941 8L16.697 9.247L9.867 5.344L12.02 4.153ZM4 9.705L11 13.621V19.301L4 15.411V9.705ZM13 19.301L13.002 13.622L16 11.944V15L18 14V10.825L20 9.706V15.411L13 19.301Z" fill="#1A1A1A"/>
</svg>
