<svg width="24" height="24" viewBox="0 0 24 24" fill="none" xmlns="http://www.w3.org/2000/svg">
<path d="M20.9956 6.903C20.9626 6.561 20.7566 6.26 20.4486 6.106L12.4756 2.106C12.1946 1.963 11.8626 1.964 11.5806 2.104L3.55365 6.104C3.25665 6.254 3.05165 6.541 3.00965 6.871C2.99665 6.968 1.86465 16.612 11.5506 21.879C11.6986 21.96 11.8636 22 12.0276 22C12.1976 22 12.3676 21.957 12.5196 21.87C21.8266 16.611 21.0336 7.297 20.9956 6.903ZM12.0186 19.847C5.15865 15.837 4.87865 9.495 4.95565 7.642L12.0266 4.119L19.0246 7.63C19.0296 9.5 18.5436 15.873 12.0186 19.847Z" fill="#1A1A1A"/>
</svg>
