<svg width="24" height="24" viewBox="0 0 24 24" fill="none" xmlns="http://www.w3.org/2000/svg">
<path d="M12 22L13 20V17H18C18.553 17 19 16.553 19 16V14.414C19 13.888 18.786 13.372 18.414 13L17 11.586V8C17.553 8 18 7.553 18 7V4C18 2.897 17.103 2 16 2H8C6.897 2 6 2.897 6 4V7C6 7.553 6.448 8 7 8V11.586L5.586 13C5.213 13.372 5 13.888 5 14.414V16C5 16.553 5.448 17 6 17H11V20L12 22ZM8 4H16V6H8V4ZM7 14.414L8.707 12.707C8.895 12.52 9 12.266 9 12V8H15V12C15 12.266 15.105 12.52 15.293 12.707L17 14.414V15H7V14.414Z" fill="#1A1A1A"/>
</svg>
