<?xml version="1.0" standalone="no"?>
<!DOCTYPE svg PUBLIC "-//W3C//DTD SVG 20010904//EN"
 "http://www.w3.org/TR/2001/REC-SVG-20010904/DTD/svg10.dtd">
<svg version="1.0" xmlns="http://www.w3.org/2000/svg"
 width="200.000000pt" height="200.000000pt" viewBox="0 0 200.000000 200.000000"
 preserveAspectRatio="xMidYMid meet">

<g transform="translate(0.000000,200.000000) scale(0.100000,-0.100000)"
fill="#000000" stroke="none">
<path d="M390 1394 c-184 -49 -311 -228 -298 -417 8 -104 39 -177 108 -251 98
-104 224 -150 354 -128 181 30 310 152 346 325 7 37 18 61 30 67 12 6 174 10
424 10 l406 0 0 -80 c0 -117 -31 -179 -88 -180 -56 0 -83 35 -91 125 l-6 60
-71 3 -71 3 -6 -55 c-7 -69 -24 -106 -59 -125 -60 -34 -116 19 -125 118 l-6
62 -71 -3 -71 -3 2 -59 c8 -225 208 -350 370 -230 l32 24 37 -25 c127 -86 279
-39 345 108 22 47 24 69 27 230 l4 177 -494 0 c-474 0 -495 -1 -538 -21 -24
-11 -53 -28 -63 -37 -27 -24 -53 -80 -61 -131 -12 -81 -65 -154 -141 -194 -31
-17 -58 -22 -115 -22 -85 0 -133 20 -187 77 -121 126 -85 327 72 411 30 16 58
22 115 22 64 0 82 -4 122 -28 26 -15 60 -43 74 -61 l27 -34 50 39 c27 21 53
39 58 39 19 0 7 23 -36 69 -103 110 -259 154 -405 115z"/>
</g>
</svg>
