<svg width="24" height="24" viewBox="0 0 24 24" fill="none" xmlns="http://www.w3.org/2000/svg">
<path d="M11.9992 2.00699C9.32416 2.00699 6.81216 3.04399 4.92816 4.92899C1.02916 8.82799 1.02916 15.172 4.92816 19.072C6.81216 20.957 9.32416 21.995 11.9992 21.995C14.6742 21.995 17.1862 20.957 19.0702 19.072C22.9692 15.173 22.9692 8.82899 19.0702 4.92899C17.1862 3.04399 14.6742 2.00699 11.9992 2.00699ZM17.6562 17.657C16.1492 19.164 14.1392 19.994 11.9992 19.994C9.85816 19.994 7.84916 19.164 6.34216 17.657C3.22316 14.538 3.22316 9.46199 6.34216 6.34299C7.84916 4.83599 9.85816 4.00699 11.9992 4.00699C14.1402 4.00699 16.1492 4.83599 17.6562 6.34299C20.7752 9.46199 20.7752 14.538 17.6562 17.657Z" fill="#1A1A1A"/>
<path d="M9.66009 8.24701L8.24609 9.66101L11.4601 12.875L9.33509 15H14.9991V9.33701L12.8741 11.461L9.66009 8.24701Z" fill="#1A1A1A"/>
</svg>
