<svg width="24" height="24" viewBox="0 0 24 24" fill="none" xmlns="http://www.w3.org/2000/svg">
<path d="M11.001 10H13.001V15H11.001V10ZM11 16H13V18H11V16Z" fill="#1A1A1A"/>
<path d="M13.7679 4.19994C13.4199 3.54494 12.7419 3.13794 11.9999 3.13794C11.2579 3.13794 10.5799 3.54494 10.2319 4.20094L2.89392 18.0639C2.56292 18.6899 2.58292 19.4249 2.94792 20.0319C3.31292 20.6379 3.95292 20.9999 4.66092 20.9999H19.3389C20.0469 20.9999 20.6879 20.6379 21.0529 20.0319C21.4169 19.4259 21.4379 18.6899 21.1069 18.0639L13.7679 4.19994ZM4.66092 18.9999L11.9999 5.13694L19.3439 18.9999H4.66092Z" fill="#1A1A1A"/>
</svg>
