<svg width="24" height="24" viewBox="0 0 24 24" fill="none" xmlns="http://www.w3.org/2000/svg">
<path d="M8.99833 20.133C10.3343 20.133 11.5903 19.612 12.5343 18.668L19.6683 11.535C21.6173 9.585 21.6173 6.412 19.6673 4.463C18.7223 3.52 17.4663 3 16.1313 3C14.7963 3 13.5403 3.52 12.5973 4.464L5.46333 11.598C3.51533 13.547 3.51433 16.719 5.46333 18.67C6.40733 19.613 7.66333 20.133 8.99833 20.133ZM14.0113 5.878C14.5773 5.312 15.3303 5 16.1313 5C16.9333 5 17.6873 5.313 18.2533 5.878C19.4233 7.048 19.4233 8.951 18.2543 10.121L15.3613 13.013L11.1193 8.77L14.0113 5.878ZM6.87733 13.012L9.70533 10.184L13.9473 14.427L11.1203 17.254C9.98733 18.387 8.01033 18.386 6.87733 17.255C5.70833 16.085 5.70833 14.182 6.87733 13.012Z" fill="#1A1A1A"/>
</svg>
