<svg width="24" height="24" viewBox="0 0 24 24" fill="none" xmlns="http://www.w3.org/2000/svg">
<path d="M8.586 18L12 21.414L15.414 18H19C20.103 18 21 17.103 21 16V4C21 2.897 20.103 2 19 2H5C3.897 2 3 2.897 3 4V16C3 17.103 3.897 18 5 18H8.586ZM5 4H19V16H14.586L12 18.586L9.414 16H5V4Z" fill="#1A1A1A"/>
<path d="M12.479 7.21875L7.50195 12.1877V13.9868H9.30195L14.277 9.01775L12.479 7.21875Z" fill="#1A1A1A"/>
<path d="M14.6982 4.99902L16.4983 6.79811L15.1276 8.16957L13.3275 6.37049L14.6982 4.99902Z" fill="#1A1A1A"/>
</svg>
