<svg width="24" height="24" viewBox="0 0 24 24" fill="none" xmlns="http://www.w3.org/2000/svg">
<path d="M2.00158 9.63C1.97858 10.041 2.20858 10.424 2.58258 10.596L10.0866 14.038L13.5286 21.541C13.6926 21.897 14.0486 22.124 14.4376 22.124C14.4566 22.124 14.4746 22.123 14.4946 22.122C14.9046 22.1 15.2596 21.827 15.3886 21.436L20.9836 4.404C21.1006 4.046 21.0066 3.651 20.7406 3.384C20.4746 3.117 20.0806 3.026 19.7206 3.141L2.68758 8.736C2.29658 8.865 2.02358 9.22 2.00158 9.63ZM18.4656 5.659L14.2836 18.389L11.7496 12.867C11.6486 12.649 11.4756 12.474 11.2576 12.375L5.73358 9.841L18.4656 5.659Z" fill="#1A1A1A"/>
</svg>
