<svg width="24" height="24" viewBox="0 0 24 24" fill="none" xmlns="http://www.w3.org/2000/svg">
<path fill-rule="evenodd" clip-rule="evenodd" d="M19 3.5L17.75 3.5L6.4999 3.5H5.2499V4.75V10.75V11.5H3.7499V10.75L3.7499 4.75V2.75C3.7499 2.33579 4.08569 2 4.4999 2H6.4999L17.75 2L19.75 2C19.9489 2 20.1397 2.07902 20.2803 2.21967C20.421 2.36032 20.5 2.55109 20.5 2.75V4.75V10.75V11.5H19V10.75V4.75V3.5ZM3 16.1893H3.2499H8.43924L6.71957 14.4697L6.18924 13.9393L7.2499 12.8787L7.78023 13.409L10.7802 16.409L11.3106 16.9393L10.7802 17.4697L7.78023 20.4697L7.2499 21L6.18924 19.9393L6.71957 19.409L8.43924 17.6893H3.2499H3V16.1893ZM16.0606 16.1893L17.7802 14.4697L18.3106 13.9393L17.2499 12.8787L16.7196 13.409L13.7196 16.409L13.1892 16.9393L13.7196 17.4697L16.7196 20.4697L17.2499 21L18.3106 19.9393L17.7802 19.409L16.0606 17.6893H21.2499H21.4999V16.1893H21.2499H16.0606Z" fill="#1A1A1A"/>
</svg>
