<svg width="24" height="24" viewBox="0 0 24 24" fill="none" xmlns="http://www.w3.org/2000/svg">
<path fill-rule="evenodd" clip-rule="evenodd" d="M8.74719 4.14702C9.77846 3.71986 10.8838 3.5 12 3.5V2C10.6868 2 9.38642 2.25866 8.17317 2.7612C6.95991 3.26375 5.85752 4.00035 4.92893 4.92893C4.00035 5.85752 3.26375 6.95991 2.7612 8.17317C2.25866 9.38642 2 10.6868 2 12C2 13.3132 2.25866 14.6136 2.7612 15.8268C3.26375 17.0401 4.00035 18.1425 4.92893 19.0711C5.85752 19.9997 6.95991 20.7362 8.17317 21.2388C9.38642 21.7413 10.6868 22 12 22V20.5C10.8838 20.5 9.77846 20.2801 8.74719 19.853C7.71592 19.4258 6.77889 18.7997 5.98959 18.0104C5.20029 17.2211 4.57419 16.2841 4.14702 15.2528C3.71986 14.2215 3.5 13.1162 3.5 12C3.5 10.8838 3.71986 9.77846 4.14702 8.74719C4.57419 7.71592 5.20029 6.77889 5.98959 5.98959C6.77889 5.20029 7.71592 4.57419 8.74719 4.14702ZM19.0721 17.0494L20.0099 17.9868C19.8666 18.1785 19.7163 18.3652 19.5594 18.5464C19.4036 18.7263 19.2412 18.9009 19.0725 19.0697L19.0711 19.071L19.0697 19.0724C18.9009 19.2412 18.7264 19.4036 18.5465 19.5593C18.3653 19.7163 18.1786 19.8666 17.9869 20.0099L17.0494 19.072L18.061 18.0609L19.0721 17.0494ZM20.5712 10.5697L21.8972 10.5695C21.9314 10.8064 21.9572 11.0446 21.9744 11.2837C21.9914 11.5211 22 11.7594 22 11.998V12V12.0019C22 12.2406 21.9914 12.4789 21.9744 12.7162C21.9572 12.9554 21.9314 13.1936 21.8972 13.4305L20.5712 13.4302V10.5697ZM17.0494 4.92792L17.9869 3.99011C18.1786 4.13341 18.3653 4.28367 18.5465 4.44061C18.7264 4.59641 18.9009 4.7588 19.0697 4.92753L19.0711 4.92891L19.0725 4.9303C19.2412 5.0991 19.4036 5.27364 19.5594 5.45353C19.7164 5.63476 19.8666 5.82144 20.0099 6.01316L19.0721 6.95061L17.0494 4.92792Z" fill="#1A1A1A"/>
</svg>
