<svg width="24" height="24" viewBox="0 0 24 24" fill="none" xmlns="http://www.w3.org/2000/svg">
<path d="M11.0022 7.054V4C11.0022 3.596 10.7592 3.231 10.3852 3.076C10.0122 2.922 9.5812 3.007 9.2952 3.293L2.2952 10.293C1.9042 10.684 1.9042 11.316 2.2952 11.707L9.2952 18.707C9.5822 18.994 10.0122 19.079 10.3852 18.924C10.7592 18.769 11.0022 18.404 11.0022 18V14.904C11.2862 14.884 11.5672 14.875 11.8452 14.875C17.2712 14.875 20.0842 18.447 20.2072 18.605C20.3992 18.859 20.6962 19 21.0022 19C21.1082 19 21.2162 18.983 21.3202 18.948C21.7272 18.811 22.0022 18.43 22.0022 18C22.0022 8.876 13.9162 7.319 11.0022 7.054ZM11.8452 12.875C11.1982 12.875 10.5332 12.92 9.8702 13.008C9.3732 13.075 9.0022 13.499 9.0022 14V15.586L4.4162 11L9.0022 6.414V8C9.0022 8.552 9.4732 9 10.0242 9C10.9342 9 18.1382 9.201 19.7032 15.425C18.0492 14.207 15.4222 12.875 11.8452 12.875Z" fill="#1A1A1A"/>
</svg>
