<svg width="24" height="24" viewBox="0 0 24 24" fill="none" xmlns="http://www.w3.org/2000/svg">
<path d="M15.706 15.706L17.999 13.413L20.293 15.707L21.707 14.293L19.414 12L21.707 9.707L20.293 8.293L18 10.586L15.707 8.293L14.293 9.707L16.585 11.999L14.292 14.292L15.706 15.706ZM12 8C12 5.72 10.28 4 8 4C5.72 4 4 5.72 4 8C4 10.28 5.72 12 8 12C10.28 12 12 10.28 12 8ZM6 8C6 6.822 6.822 6 8 6C9.178 6 10 6.822 10 8C10 9.178 9.178 10 8 10C6.822 10 6 9.178 6 8ZM4 18C4 16.346 5.346 15 7 15H9C10.654 15 12 16.346 12 18V19H14V18C14 15.243 11.757 13 9 13H7C4.243 13 2 15.243 2 18V19H4V18Z" fill="#1A1A1A"/>
</svg>
