<svg width="24" height="24" viewBox="0 0 24 24" fill="none" xmlns="http://www.w3.org/2000/svg">
<path d="M7.06151 22C8.58451 22 9.90151 21.457 10.9715 20.387C12.0945 19.264 12.6785 17.533 12.5225 15.893L21.0865 7.329C22.3035 6.112 22.3035 4.134 21.0845 2.915C19.9065 1.735 17.8505 1.735 16.6725 2.915L7.78851 11.799C5.87551 11.968 3.98151 13.32 3.98151 15.718C3.98151 16.021 4.00251 16.306 4.02351 16.578C4.10351 17.609 4.13251 17.996 2.55251 18.786C2.23651 18.944 2.02751 19.258 2.00251 19.61C1.97751 19.962 2.14051 20.301 2.43051 20.503C2.52051 20.563 4.62351 22 7.06151 22C7.06051 22 7.06051 22 7.06151 22ZM18.0865 4.328C18.5105 3.904 19.2445 3.902 19.6725 4.33C20.1095 4.767 20.1095 5.477 19.6725 5.914L12.0005 13.586L10.4145 12L18.0865 4.328ZM6.01851 16.423C6.00051 16.199 5.98151 15.965 5.98151 15.717C5.98151 14.172 7.42651 13.764 8.19151 13.764C8.54751 13.764 8.89051 13.837 9.15551 13.97C10.1005 14.445 10.4155 15.263 10.5125 15.866C10.6895 16.956 10.2955 18.234 9.55651 18.973C8.86551 19.664 8.04951 20 7.06151 20H7.06051C6.31051 20 5.58151 19.804 4.98651 19.573C6.06851 18.6 6.10751 17.584 6.01851 16.423Z" fill="#1A1A1A"/>
</svg>
