<svg width="24" height="24" viewBox="0 0 24 24" fill="none" xmlns="http://www.w3.org/2000/svg">
<path d="M6.51574 14.323L5.02574 20.775C4.93374 21.174 5.09374 21.589 5.43174 21.822C5.60274 21.94 5.80074 22 5.99974 22C6.19274 22 6.38674 21.944 6.55474 21.832L11.9997 18.202L17.4447 21.832C17.7927 22.064 18.2497 22.055 18.5897 21.808C18.9277 21.561 19.0767 21.128 18.9617 20.726L17.1327 14.326L21.6687 10.244C21.9657 9.976 22.0747 9.558 21.9467 9.18C21.8177 8.802 21.4767 8.536 21.0787 8.504L15.3777 8.05L12.9107 2.589C12.7497 2.23 12.3927 2 11.9997 2C11.6067 2 11.2497 2.23 11.0887 2.589L8.62174 8.05L2.92074 8.503C2.52874 8.534 2.19174 8.791 2.05974 9.16C1.92574 9.529 2.02174 9.942 2.30174 10.216L6.51574 14.323ZM9.36874 9.997C9.73174 9.968 10.0517 9.744 10.2007 9.411L11.9997 5.43L13.7987 9.411C13.9477 9.744 14.2677 9.968 14.6307 9.997L18.6027 10.312L15.3317 13.256C15.0477 13.512 14.9347 13.906 15.0387 14.274L16.2917 18.659L12.5557 16.168C12.2197 15.943 11.7827 15.943 11.4467 16.168L7.54274 18.771L8.59274 14.225C8.67074 13.885 8.56674 13.528 8.31674 13.285L5.27874 10.323L9.36874 9.997Z" fill="#1A1A1A"/>
</svg>
