<svg width="24" height="24" viewBox="0 0 24 24" fill="none" xmlns="http://www.w3.org/2000/svg">
<path d="M11.9998 19C12.9458 19 13.8097 18.897 14.5977 18.719L12.8407 16.962C12.5677 16.983 12.2908 17 11.9998 17C6.64875 17 4.57575 13.154 4.07375 12C4.27775 11.53 4.74775 10.619 5.58175 9.703L4.18375 8.305C2.64575 9.972 2.06275 11.651 2.05175 11.684C1.98275 11.889 1.98275 12.112 2.05175 12.317C2.07275 12.383 4.36675 19 11.9998 19ZM11.9998 5C10.1628 5 8.65375 5.396 7.39575 5.981L3.70675 2.293L2.29275 3.707L20.2927 21.707L21.7068 20.293L18.3878 16.974C21.0018 15.023 21.9347 12.359 21.9487 12.317C22.0177 12.112 22.0177 11.889 21.9487 11.684C21.9268 11.617 19.6327 5 11.9998 5ZM16.9718 15.558L14.6918 13.278C14.8818 12.888 14.9998 12.459 14.9998 12C14.9998 10.359 13.6407 9 11.9998 9C11.5408 9 11.1117 9.118 10.7227 9.309L8.91475 7.501C9.79575 7.193 10.8138 7 11.9998 7C17.3507 7 19.4237 10.846 19.9258 12C19.6238 12.692 18.7598 14.342 16.9718 15.558Z" fill="#1A1A1A"/>
</svg>
