<svg width="24" height="24" viewBox="0 0 24 24" fill="none" xmlns="http://www.w3.org/2000/svg">
<path fill-rule="evenodd" clip-rule="evenodd" d="M3.25 5.75L3.25 7L3.25 18.2501L3.25 19.5001L4.5 19.5001L10.5 19.5001L11.25 19.5001L11.25 21.0001L10.5 21.0001L4.5 21.0001L2.5 21.0001C2.08579 21.0001 1.75 20.6643 1.75 20.2501L1.75 18.2501L1.75 7L1.75 5C1.75 4.80109 1.82902 4.61032 1.96967 4.46967C2.11032 4.32902 2.30109 4.25 2.5 4.25L4.5 4.25L10.5 4.25L11.25 4.25L11.25 5.75L10.5 5.75L4.5 5.75L3.25 5.75ZM15.9393 21.75L15.9393 21.5001L15.9393 16.3108L14.2197 18.0304L13.6893 18.5608L12.6287 17.5001L13.159 16.9698L16.159 13.9698L16.6893 13.4394L17.2197 13.9698L20.2197 16.9698L20.75 17.5001L19.6893 18.5608L19.159 18.0304L17.4393 16.3108L17.4393 21.5001L17.4393 21.75L15.9393 21.75ZM15.9393 8.68944L14.2197 6.96977L13.6893 6.43944L12.6287 7.5001L13.159 8.03043L16.159 11.0304L16.6893 11.5608L17.2197 11.0304L20.2197 8.03043L20.75 7.5001L19.6893 6.43944L19.159 6.96977L17.4393 8.68944L17.4393 3.5001L17.4393 3.2501L15.9393 3.2501L15.9393 3.5001L15.9393 8.68944Z" fill="#1A1A1A"/>
</svg>
