<svg width="24" height="24" viewBox="0 0 24 24" fill="none" xmlns="http://www.w3.org/2000/svg">
<path fill-rule="evenodd" clip-rule="evenodd" d="M4.99138 2H4C2.89543 2 2 2.89543 2 4V4.99138L4.99138 2ZM2 12.0624V9.23402L9.23402 2H12.0624L2 12.0624ZM2 19.1335V16.3051L16.3051 2H19.1335L2 19.1335ZM6.20347 22H4C3.80971 22 3.62563 21.9734 3.45126 21.9238L21.9238 3.45126C21.9734 3.62563 22 3.80971 22 4V6.20347L6.20347 22ZM13.2745 22H10.4461L22 10.4461V13.2745L13.2745 22ZM20.3821 21.9635C20.2584 21.9875 20.1307 22 20 22H17.5172L22 17.5172V20C22 20.1307 21.9875 20.2584 21.9635 20.3821L20.3821 21.9635Z" fill="#1A1A1A"/>
</svg>
