<svg width="120" height="120" viewBox="0 0 120 120" fill="none" xmlns="http://www.w3.org/2000/svg">
<path d="M10 60L11.7236 58.2763C11.8376 58.141 11.9231 58.0769 11.9231 58.0769L11.7236 58.2763C11.4957 58.547 11.1538 59.1025 11.1538 60C11.1538 60.8974 11.4957 61.453 11.7236 61.7236L11.9231 61.9231C11.9231 61.9231 11.8376 61.859 11.7236 61.7236L10 60Z" fill="black"/>
<path d="M60.0002 110L58.2766 108.276C58.1413 108.162 58.0771 108.077 58.0771 108.077L58.2766 108.276C58.5472 108.504 59.1028 108.846 60.0002 108.846C60.8977 108.846 61.4532 108.504 61.7239 108.276L61.9233 108.077C61.9233 108.077 61.8592 108.162 61.7239 108.276L60.0002 110Z" fill="black"/>
<path d="M60.0002 110H13.0769C11.3776 110 10 108.622 10 106.923V60L60.0002 110Z" fill="black"/>
<path d="M110 60V106.923C110 108.622 108.622 110 106.923 110H60.0002L110 60Z" fill="black"/>
<path d="M10 60V13.0769C10 11.3776 11.3776 10 13.0769 10H60L10 60Z" fill="black"/>
<path d="M110 60H63.0769C61.3776 60 60 58.6224 60 56.9231V10L110 60Z" fill="black"/>
</svg>
