<svg width="24" height="24" viewBox="0 0 24 24" fill="none" xmlns="http://www.w3.org/2000/svg">
<path d="M19.023 16.977C18.51 16.489 18.019 15.98 17.656 15.593C17.284 15.215 17.06 14.94 17.06 14.94L14.26 13.603C15.34 12.37 16 10.763 16 9C16 5.141 12.86 2 9 2C5.14 2 2 5.141 2 9C2 12.859 5.14 16 9 16C10.763 16 12.37 15.34 13.603 14.261L14.94 17.061C14.94 17.061 15.215 17.285 15.593 17.657C15.98 18.02 16.489 18.511 16.977 19.024C17.471 19.53 17.965 20.036 18.335 20.416C18.697 20.804 18.939 21.062 18.939 21.062L21.06 18.941C21.06 18.941 20.802 18.699 20.414 18.337C20.035 17.965 19.529 17.471 19.023 16.977ZM9 14C6.243 14 4 11.757 4 9C4 6.243 6.243 4 9 4C11.757 4 14 6.243 14 9C14 11.757 11.757 14 9 14Z" fill="#1A1A1A"/>
</svg>
