<svg width="24" height="24" viewBox="0 0 24 24" fill="none" xmlns="http://www.w3.org/2000/svg">
<path d="M8.586 18L12 21.414L15.414 18H19C20.103 18 21 17.103 21 16V4C21 2.897 20.103 2 19 2H5C3.897 2 3 2.897 3 4V16C3 17.103 3.897 18 5 18H8.586ZM5 4H19V16H14.586L12 18.586L9.414 16H5V4Z" fill="#1A1A1A"/>
<path d="M9.70697 13.707L12 11.414L14.293 13.707L15.707 12.293L13.414 9.99997L15.707 7.70697L14.293 6.29297L12 8.58597L9.70697 6.29297L8.29297 7.70697L10.586 9.99997L8.29297 12.293L9.70697 13.707Z" fill="#1A1A1A"/>
</svg>
