<svg width="24" height="24" viewBox="0 0 24 24" fill="none" xmlns="http://www.w3.org/2000/svg">
<path d="M3.10104 20.898C3.79904 21.597 4.79704 21.966 5.98804 21.966C7.73004 21.966 9.84304 21.188 12 19.839C14.156 21.189 16.27 21.966 18.012 21.966C19.202 21.966 20.2 21.597 20.899 20.898C22.168 19.629 22.31 17.485 21.3 14.859C20.942 13.927 20.446 12.964 19.843 12C20.447 11.036 20.942 10.073 21.3 9.141C22.31 6.515 22.167 4.37 20.899 3.102C20.201 2.403 19.203 2.034 18.012 2.034C16.27 2.034 14.157 2.812 12 4.161C9.84404 2.811 7.73004 2.034 5.98804 2.034C4.79804 2.034 3.80004 2.403 3.10104 3.102C1.83204 4.371 1.68904 6.515 2.69904 9.141C3.05804 10.073 3.55304 11.036 4.15604 12C3.55204 12.964 3.05704 13.927 2.69904 14.859C1.68904 17.485 1.83204 19.629 3.10104 20.898ZM19.432 15.577C20.121 17.367 20.14 18.828 19.484 19.484C19.164 19.804 18.669 19.966 18.011 19.966C16.844 19.966 15.365 19.463 13.803 18.586C14.665 17.92 15.521 17.174 16.347 16.348C17.167 15.528 17.916 14.671 18.586 13.802C18.922 14.403 19.209 14.998 19.432 15.577ZM11.999 17.417C11.001 16.702 10.005 15.874 9.06504 14.934C8.12004 13.988 7.28204 12.997 6.56504 12C7.28204 11.003 8.12004 10.012 9.06504 9.066C10.005 8.127 11.001 7.299 11.999 6.583C12.997 7.298 13.993 8.126 14.933 9.066C15.878 10.012 16.716 11.003 17.433 12C16.716 12.997 15.878 13.988 14.933 14.934C13.993 15.873 12.997 16.701 11.999 17.417ZM18.011 4.034C18.668 4.034 19.163 4.196 19.484 4.516C20.14 5.172 20.122 6.633 19.432 8.423C19.209 9.002 18.922 9.597 18.586 10.198C17.916 9.329 17.167 8.472 16.347 7.652C15.521 6.826 14.665 6.08 13.803 5.414C15.365 4.538 16.844 4.034 18.011 4.034ZM4.56604 8.423C3.87704 6.633 3.85804 5.172 4.51404 4.516C4.83404 4.196 5.32904 4.034 5.98704 4.034C7.15404 4.034 8.63304 4.537 10.195 5.414C9.33304 6.08 8.47804 6.826 7.65104 7.652C6.83104 8.472 6.08204 9.329 5.41204 10.198C5.07604 9.597 4.78904 9.002 4.56604 8.423ZM4.56604 15.577C4.78904 14.998 5.07604 14.403 5.41204 13.802C6.08204 14.671 6.83104 15.528 7.65104 16.348C8.47704 17.174 9.33304 17.92 10.195 18.586C8.63204 19.463 7.15404 19.966 5.98704 19.966C5.33004 19.966 4.83504 19.804 4.51404 19.484C3.85804 18.828 3.87704 17.367 4.56604 15.577Z" fill="#1A1A1A"/>
<path d="M11.9998 14.574C13.4214 14.574 14.5738 13.4216 14.5738 12C14.5738 10.5784 13.4214 9.42603 11.9998 9.42603C10.5782 9.42603 9.42578 10.5784 9.42578 12C9.42578 13.4216 10.5782 14.574 11.9998 14.574Z" fill="#1A1A1A"/>
</svg>
