<svg width="24" height="24" viewBox="0 0 24 24" fill="none" xmlns="http://www.w3.org/2000/svg">
<path d="M8.01367 12.1348C8.08767 14.1968 9.80267 15.9118 11.8647 15.9858L8.01367 12.1348Z" fill="#1A1A1A"/>
<path d="M4 20H15.879L13.879 18H4V8.121L2.144 6.265C2.053 6.493 2 6.74 2 7V18C2 19.103 2.897 20 4 20ZM20 5H17.414L14.707 2.293C14.52 2.105 14.266 2 14 2H10C9.735 2 9.48 2.105 9.293 2.293L6.586 5H6.414L3.707 2.293L2.293 3.707L20.293 21.707L21.707 20.293L21.081 19.667C21.631 19.313 22 18.703 22 18V7C22 5.897 21.103 5 20 5ZM13.919 12.505L11.495 10.08C11.658 10.034 11.826 10 12 10C13.065 10 14 10.935 14 12C14 12.174 13.967 12.342 13.919 12.505ZM15.421 14.006C15.779 13.412 16 12.729 16 12C16 9.832 14.168 8 12 8C11.271 8 10.588 8.22 9.993 8.579L7.914 6.5L10.414 4H13.586L16.293 6.707C16.48 6.895 16.734 7 17 7L20 6.999V18H19.414L15.421 14.006Z" fill="#1A1A1A"/>
</svg>
