<svg width="24" height="24" viewBox="0 0 24 24" fill="none" xmlns="http://www.w3.org/2000/svg">
<g id="icon_inner-shadow">
<path id="Vector" fill-rule="evenodd" clip-rule="evenodd" d="M8.26887 2.99218C9.4518 2.50219 10.7197 2.25 12.0001 2.25C13.2805 2.25 14.5483 2.50219 15.7312 2.99218C16.9142 3.48216 17.989 4.20035 18.8944 5.10572C19.7998 6.0111 20.5179 7.08594 21.0079 8.26887C21.4979 9.4518 21.7501 10.7197 21.7501 12.0001C21.7501 13.2805 21.4979 14.5483 21.0079 15.7312C20.5179 16.9142 19.7998 17.989 18.8944 18.8944C17.0659 20.7229 14.5859 21.7501 12.0001 21.7501C9.41418 21.7501 6.93422 20.7229 5.10573 18.8944C3.27724 17.0659 2.25 14.5859 2.25 12.0001C2.25 9.41418 3.27724 6.93422 5.10573 5.10573C6.0111 4.20035 7.08594 3.48217 8.26887 2.99218ZM12.0001 3.75C10.9166 3.75 9.84384 3.96339 8.8429 4.378C7.84195 4.7926 6.93247 5.4003 6.16639 6.16639C4.6192 7.71357 3.75 9.81201 3.75 12.0001C3.75 14.1881 4.6192 16.2865 6.16639 17.8337C7.71357 19.3809 9.812 20.2501 12.0001 20.2501C14.1881 20.2501 16.2865 19.3809 17.8337 17.8337C18.5998 17.0676 19.2075 16.1582 19.6221 15.1572C20.0367 14.1563 20.2501 13.0835 20.2501 12.0001C20.2501 10.9166 20.0367 9.84384 19.6221 8.8429C19.2075 7.84195 18.5998 6.93247 17.8337 6.16639C17.0676 5.4003 16.1582 4.7926 15.1572 4.378C14.1563 3.96339 13.0835 3.75 12.0001 3.75ZM7.75693 15.1824L8.28721 15.7128C8.77473 16.2004 9.35353 16.5872 9.99054 16.8511C10.6276 17.1149 11.3103 17.2508 11.9998 17.2508C12.6894 17.2508 13.3721 17.1149 14.0091 16.8511C14.6461 16.5872 15.2249 16.2004 15.7125 15.7128L16.2427 15.1824L17.3035 16.243L16.7732 16.7733C16.1464 17.4003 15.4022 17.8976 14.5832 18.2368C13.7642 18.5761 12.8864 18.7508 11.9998 18.7508C11.1133 18.7508 10.2355 18.5761 9.41646 18.2368C8.59744 17.8976 7.85327 17.4003 7.22646 16.7733L6.69618 16.243L7.75693 15.1824Z" fill="#1A1A1A"/>
</g>
</svg>
