<svg width="24" height="24" viewBox="0 0 24 24" fill="none" xmlns="http://www.w3.org/2000/svg">
<path d="M19.148 2.971C18.789 2.372 18.132 2 17.434 2H6.566C5.868 2 5.211 2.372 4.852 2.971L2.143 7.485C2.049 7.641 2 7.818 2 8C2 9.006 2.386 9.914 3 10.618V19C3 20.103 3.897 21 5 21H9H15H19C20.103 21 21 20.103 21 19V10.618C21.614 9.914 22 9.006 22 8C22 7.818 21.951 7.641 21.857 7.485L19.148 2.971ZM19.984 8.251C19.86 9.235 19.018 10 18 10C16.897 10 16 9.103 16 8C16 7.932 15.975 7.872 15.961 7.808L15.981 7.804L15.22 4H17.434L19.984 8.251ZM10.819 4H13.18L13.993 8.065C13.958 9.137 13.08 10 12 10C10.92 10 10.042 9.137 10.007 8.065L10.819 4ZM6.566 4H8.78L8.02 7.804L8.04 7.808C8.025 7.872 8 7.932 8 8C8 9.103 7.103 10 6 10C4.982 10 4.14 9.235 4.016 8.251L6.566 4ZM10 19V16H14V19H10ZM16 19V16C16 14.897 15.103 14 14 14H10C8.897 14 8 14.897 8 16V19H5V11.858C5.321 11.941 5.652 12 6 12C7.193 12 8.267 11.475 9 10.643C9.733 11.475 10.807 12 12 12C13.193 12 14.267 11.475 15 10.643C15.733 11.475 16.807 12 18 12C18.348 12 18.679 11.941 19 11.858V19H16Z" fill="#1A1A1A"/>
</svg>
