<svg width="24" height="24" viewBox="0 0 24 24" fill="none" xmlns="http://www.w3.org/2000/svg">
<path d="M11.9933 2.00699C9.3183 2.00699 6.8063 3.04399 4.9223 4.92899C1.0233 8.82799 1.0233 15.172 4.9223 19.072C6.8073 20.957 9.3183 21.995 11.9933 21.995C14.6693 21.995 17.1803 20.957 19.0643 19.072C22.9633 15.173 22.9633 8.82899 19.0643 4.92899C17.1803 3.04399 14.6693 2.00699 11.9933 2.00699ZM17.6503 17.657C16.1433 19.164 14.1343 19.994 11.9933 19.994C9.8523 19.994 7.8433 19.164 6.3363 17.657C3.2173 14.538 3.2173 9.46199 6.3363 6.34299C7.8433 4.83599 9.8533 4.00699 11.9933 4.00699C14.1353 4.00699 16.1433 4.83599 17.6503 6.34299C20.7703 9.46199 20.7703 14.538 17.6503 17.657Z" fill="#1A1A1A"/>
<path d="M14.6562 9H8.99219V14.663L11.1172 12.539L14.3322 15.753L15.7462 14.339L12.5312 11.125L14.6562 9Z" fill="#1A1A1A"/>
</svg>
