<svg width="24" height="24" viewBox="0 0 24 24" fill="none" xmlns="http://www.w3.org/2000/svg">
<path fill-rule="evenodd" clip-rule="evenodd" d="M5.8125 4.5C5.4644 4.5 5.13056 4.63828 4.88442 4.88442C4.63828 5.13056 4.5 5.4644 4.5 5.8125V8.625H3V5.8125C3 5.06658 3.29632 4.35121 3.82376 3.82376C4.35121 3.29632 5.06658 3 5.8125 3H8.625V4.5H5.8125ZM15.375 3H18.1875C18.9334 3 19.6488 3.29632 20.1762 3.82376C20.7037 4.35121 21 5.06658 21 5.8125V8.625H19.5V5.8125C19.5 5.4644 19.3617 5.13056 19.1156 4.88442C18.8694 4.63828 18.5356 4.5 18.1875 4.5H15.375V3ZM4.5 15.375V18.1875C4.5 18.5356 4.63828 18.8694 4.88442 19.1156C5.13056 19.3617 5.4644 19.5 5.8125 19.5H8.625V21H5.8125C5.06658 21 4.35121 20.7037 3.82376 20.1762C3.29632 19.6488 3 18.9334 3 18.1875V15.375H4.5ZM21 15.375V18.1875C21 18.9334 20.7037 19.6488 20.1762 20.1762C19.6488 20.7037 18.9334 21 18.1875 21H15.375V19.5H18.1875C18.5356 19.5 18.8694 19.3617 19.1156 19.1156C19.3617 18.8694 19.5 18.5356 19.5 18.1875V15.375H21Z" fill="#1A1A1A"/>
</svg>
