<svg width="24" height="24" viewBox="0 0 24 24" fill="none" xmlns="http://www.w3.org/2000/svg">
<path d="M17.8958 3.553C17.7257 3.214 17.3797 3 17.0007 3H7.00075C6.62175 3 6.27575 3.214 6.10575 3.553L2.10575 11.553C1.96475 11.834 1.96475 12.166 2.10575 12.448L6.10575 20.448C6.27575 20.786 6.62175 21 7.00075 21H17.0007C17.3797 21 17.7257 20.786 17.8958 20.447L21.8958 12.447C22.0368 12.166 22.0368 11.834 21.8958 11.552L17.8958 3.553ZM19.3827 11H11.6187L8.61875 5H16.3827L19.3827 11ZM4.11875 12L7.00075 6.236L9.88275 12L7.00075 17.764L4.11875 12ZM16.3827 19H8.61875L11.6187 13H19.3827L16.3827 19Z" fill="#1A1A1A"/>
</svg>
