<svg width="24" height="24" viewBox="0 0 24 24" fill="none" xmlns="http://www.w3.org/2000/svg">
<path fill-rule="evenodd" clip-rule="evenodd" d="M19 3.5L5.2499 3.5V11.5H3.7499V2.75C3.7499 2.33579 4.08569 2 4.4999 2L19.75 2C19.9489 2 20.1397 2.07902 20.2803 2.21967C20.421 2.36032 20.5 2.55109 20.5 2.75V11.5H19V3.5Z" fill="#1A1A1A"/>
<path fill-rule="evenodd" clip-rule="evenodd" d="M7.12132 14.0607L4.87143 16.3105H10.8105V17.8105H4.87121L7.12132 20.0607L6.06066 21.1213L2 17.0607L2.51933 16.5413C2.52651 16.5338 2.53385 16.5265 2.54133 16.5193L6.06066 13L7.12132 14.0607ZM19.2499 16.3105H13.5V17.8105H19.2501L17 20.0607L18.0607 21.1213L22.1213 17.0607L18.0607 13L17 14.0607L19.2499 16.3105Z" fill="#1A1A1A"/>
<path d="M19.2499 16.3105H13.5V17.8105H19.2501L17 20.0607L18.0607 21.1213L22.1213 17.0607L18.0607 13L17 14.0607L19.2499 16.3105Z" fill="#1A1A1A"/>
</svg>
