<svg width="14" height="14" viewBox="0 0 14 14" fill="none" xmlns="http://www.w3.org/2000/svg">
<path d="M12.995 0C13.2615 0 13.5168 0.106441 13.7044 0.295676C14.0918 0.685551 14.0918 1.31521 13.7044 1.70509L8.414 6.998L13.7044 12.2907C13.8936 12.4784 14 12.7339 14 13.0004C14 13.2669 13.8936 13.5224 13.7044 13.7101C13.5159 13.8972 13.2606 14.0015 12.995 14C12.7295 14.0015 12.4742 13.8972 12.2856 13.7101L6.995 8.417L1.71438 13.7001C1.52746 13.8909 1.27199 13.9989 1.00497 14C0.739383 14.0015 0.484116 13.8972 0.295554 13.7101C0.106398 13.5224 0 13.2669 0 13.0004C0 12.7339 0.106398 12.4784 0.295554 12.2907L5.58 7.003L0.295554 1.71509C-0.0962441 1.32313 -0.0962441 0.687635 0.295554 0.295676C0.687351 -0.0962839 1.32258 -0.0962839 1.71438 0.295676L7 5.583L12.2856 0.295676C12.4732 0.106441 12.7286 0 12.995 0Z" fill="#444444"/>
</svg>
