<svg width="20" height="20" viewBox="0 0 20 20" fill="none" xmlns="http://www.w3.org/2000/svg">
<path d="M10 0C15.5142 0 20 4.48584 20 10C20 15.5142 15.5142 20 10 20C4.48584 20 0 15.5142 0 10C0 4.48584 4.48584 0 10 0Z" fill="#F5F9FB"/>
<path fill-rule="evenodd" clip-rule="evenodd" d="M20 10C20 4.48584 15.5142 0 10 0C4.48584 0 0 4.48584 0 10C0 15.5142 4.48584 20 10 20C15.5142 20 20 15.5142 20 10ZM1 10C1 5.0376 5.0376 1 10 1C14.9624 1 19 5.0376 19 10C19 14.9624 14.9624 19 10 19C5.0376 19 1 14.9624 1 10ZM10 8C10.2457 8 10.4497 8.1767 10.492 8.41006L10.5 8.5V15.5C10.5 15.7764 10.2764 16 10 16C9.75434 16 9.55035 15.8233 9.50805 15.5899L9.5 15.5V8.5C9.5 8.22363 9.72363 8 10 8ZM10.492 4.41007C10.4497 4.1767 10.2457 4 10 4C9.72363 4 9.5 4.22363 9.5 4.5V5.5L9.50805 5.58993C9.55035 5.8233 9.75434 6 10 6C10.2764 6 10.5 5.77637 10.5 5.5V4.5L10.492 4.41007Z" fill="#23779A"/>
</svg>
