<svg width="21" height="20" viewBox="0 0 21 20" fill="none" xmlns="http://www.w3.org/2000/svg">
<path d="M10.5 0C16.0142 0 20.5 4.48584 20.5 10C20.5 15.5142 16.0142 20 10.5 20C4.98584 20 0.5 15.5142 0.5 10C0.5 4.48584 4.98584 0 10.5 0Z" fill="#FFFAEB"/>
<path fill-rule="evenodd" clip-rule="evenodd" d="M20.5 10C20.5 4.48584 16.0142 0 10.5 0C4.98584 0 0.5 4.48584 0.5 10C0.5 15.5142 4.98584 20 10.5 20C16.0142 20 20.5 15.5142 20.5 10ZM1.5 10C1.5 5.0376 5.5376 1 10.5 1C15.4624 1 19.5 5.0376 19.5 10C19.5 14.9624 15.4624 19 10.5 19C5.5376 19 1.5 14.9624 1.5 10ZM10.5 14C10.7457 14 10.9497 14.1767 10.992 14.4101L11 14.5V15.5C11 15.7764 10.7764 16 10.5 16C10.2543 16 10.0503 15.8233 10.008 15.5899L10 15.5V14.5C10 14.2236 10.2236 14 10.5 14ZM10.992 4.41007C10.9497 4.1767 10.7457 4 10.5 4C10.2236 4 10 4.22363 10 4.5V12.5L10.008 12.5899C10.0503 12.8233 10.2543 13 10.5 13C10.7764 13 11 12.7764 11 12.5V4.5L10.992 4.41007Z" fill="#856300"/>
</svg>
