<svg width="200" height="152" viewBox="0 0 200 152" fill="none" xmlns="http://www.w3.org/2000/svg">
<path d="M105.944 23.053H58.8574V69.9428H105.944V23.053Z" fill="#E6E6E6"/>
<path d="M153.032 69.9427H105.945V116.833H153.032V69.9427Z" fill="#E6E6E6"/>
<path d="M105.944 69.9427H58.8574V116.833H105.944V69.9427Z" fill="#E6E6E6"/>
<path d="M200.001 69.9427H152.914V116.833H200.001V69.9427Z" fill="#E6E6E6"/>
<path d="M153.032 23.053H105.945V69.9428H153.032V23.053Z" fill="#E6E6E6"/>
<path d="M58.8578 23.053H35.3145V46.4979H58.8578V23.053Z" fill="#E6E6E6"/>
<path d="M58.8578 46.4978H35.3145V69.9427H58.8578V46.4978Z" fill="#E6E6E6"/>
<path d="M82.4007 0H58.8574V23.4449H82.4007V0Z" fill="#E6E6E6"/>
<path d="M58.8578 93.3876H35.3145V116.833H58.8578V93.3876Z" fill="#E6E6E6"/>
<path d="M105.946 0H82.4023V23.4449H105.946V0Z" fill="#E6E6E6"/>
<path d="M153.032 116.833H129.488V140.278H153.032V116.833Z" fill="#E6E6E6"/>
<path d="M129.489 116.833H105.945V140.278H129.489V116.833Z" fill="#E6E6E6"/>
<path d="M58.8578 69.9427H35.3145V93.3877H58.8578V69.9427Z" fill="#E6E6E6"/>
<path d="M35.3148 69.9427H11.7715V93.3877H35.3148V69.9427Z" fill="#E6E6E6"/>
<path d="M35.3148 46.4978H11.7715V69.9427H35.3148V46.4978Z" fill="#E6E6E6"/>
<path d="M176.416 116.833H152.873V140.278H176.416V116.833Z" fill="#E6E6E6"/>
<path d="M11.7717 58.2203H0V69.9428H11.7717V58.2203Z" fill="#E6E6E6"/>
<path d="M153.268 140.277H141.496V152H153.268V140.277Z" fill="#E6E6E6"/>
<path d="M164.803 140.277H153.031V152H164.803V140.277Z" fill="#E6E6E6"/>
<path d="M105.945 116.833H94.1738V128.555H105.945V116.833Z" fill="#E6E6E6"/>
<path d="M11.7717 69.9427H0V81.6652H11.7717V69.9427Z" fill="#E6E6E6"/>
<path d="M176.416 46.4978H152.873V69.9427H176.416V46.4978Z" fill="#E6E6E6"/>
<path d="M29.0162 64.4278C33.8981 60.3727 40.8272 59.5853 46.4965 62.3805C47.1658 62.6955 47.7563 61.7113 47.087 61.3569C40.9059 58.3254 33.465 59.1916 28.15 63.601C27.5988 64.0735 28.4256 64.9396 29.0162 64.4278Z" fill="black"/>
<path d="M37.8355 45.8453C41.615 46.1996 44.9221 48.3256 46.8119 51.6327C47.2056 52.302 48.2292 51.7114 47.8355 51.0421C45.7489 47.3413 42.0875 45.0579 37.8749 44.6642C37.0875 44.5854 37.0875 45.7665 37.8355 45.8453Z" fill="black"/>
<path d="M54.1722 47.5774C48.8572 35.4514 47.7155 21.8293 50.9044 8.95533C51.1013 8.20729 49.9596 7.89233 49.7627 8.64037C46.495 21.8293 47.7155 35.727 53.1485 48.1679C53.4635 48.8766 54.4871 48.286 54.1722 47.5774Z" fill="black"/>
<path d="M42.2442 144.782C42.2836 144.782 42.3623 144.743 42.4017 144.743C42.1654 144.625 41.9292 144.467 41.693 144.349C41.7324 144.31 41.7717 144.231 41.8111 144.192C42.0473 144.152 42.2836 144.113 42.5198 144.113C42.008 143.837 41.8899 142.105 41.8505 141.79C41.7717 140.058 42.441 138.916 44.4095 138.955C45.0395 138.955 45.3938 139.231 46.0237 138.877C46.6536 138.522 46.7324 137.814 46.8899 137.184C47.1654 136.042 47.3623 135.018 47.9135 133.955C49.9607 129.743 54.2914 126.908 58.9765 126.829C59.7245 126.829 59.7245 125.648 58.9765 125.648C53.5434 125.766 48.5434 129.192 46.4961 134.231C46.2206 134.9 46.0237 135.609 45.8662 136.317C45.5906 137.538 45.3544 137.617 44.0946 137.656C43.1497 137.695 42.4017 137.814 41.693 138.562C40.3544 139.94 40.0001 144.073 41.8899 145.097C42.0867 145.215 42.441 145.215 42.5985 145.018C42.6379 144.979 42.6773 144.9 42.756 144.861C42.8741 144.703 42.9922 144.506 42.9135 144.27C42.8741 144.192 42.8347 144.113 42.8347 144.034C42.7166 143.719 42.441 143.522 42.1261 143.64C42.0867 143.64 42.008 143.68 41.9686 143.68C41.1812 143.837 41.4962 144.979 42.2442 144.782Z" fill="black"/>
<path d="M48.9371 140.963C49.4489 136.751 53.5434 133.522 57.7954 134.113C58.5434 134.231 58.8584 133.089 58.1104 132.971C53.071 132.302 48.386 135.924 47.7954 140.963C47.6773 141.711 48.8584 141.711 48.9371 140.963Z" fill="black"/>
<path d="M168.064 126.294C172.198 125.782 176.214 126.806 179.639 129.247C180.269 129.68 180.978 128.735 180.348 128.302C176.687 125.704 172.356 124.562 167.907 125.152C167.12 125.27 167.316 126.452 168.064 126.294Z" fill="black"/>
<path d="M166.488 129.68C171.213 129.995 175.386 132.436 178.024 136.373C178.457 137.003 179.402 136.255 178.969 135.664C176.173 131.452 171.685 128.853 166.646 128.499C165.898 128.46 165.74 129.641 166.488 129.68Z" fill="black"/>
<path d="M143.859 56.0027C150.119 62.5775 156.34 69.1523 162.6 75.7271C162.6 93.4436 158.859 110.333 154.844 120.333C147.836 116.987 140.828 113.64 133.859 110.333C137.166 92.1838 140.513 74.0736 143.859 56.0027Z" fill="black" stroke="black" stroke-miterlimit="10" stroke-linejoin="round"/>
<path d="M53.334 112.833C57.5466 115.983 62.2849 118.64 66.4975 121.79C96.261 126.711 125.592 126.514 154.45 121.081C152.364 113.719 150.316 106.357 148.23 98.9554C116.773 103.444 84.7907 108.345 53.334 112.833Z" fill="black" stroke="black" stroke-miterlimit="10" stroke-linejoin="round"/>
<path d="M62.952 60.7664C60.3536 69.2703 57.952 78.9554 56.1016 89.664C54.7237 97.7349 53.8575 105.333 53.3457 112.341C60.7866 113.955 69.1725 115.255 78.3851 115.845C100.708 117.302 119.724 114.073 133.7 110.373C136.928 102.184 140.235 91.6719 142.125 79.1916C143.424 70.5695 143.818 62.7349 143.7 55.9632C140.354 55.5302 135.669 54.979 130.039 54.5853C107.676 53.0105 91.0622 55.2152 87.2433 55.727C80.9048 56.6719 72.5977 58.1286 62.952 60.7664Z" fill="white" stroke="black" stroke-miterlimit="10" stroke-linejoin="round"/>
<path d="M89.9602 100.885C87.2436 97.8137 87.5586 93.483 89.2515 90.0184C90.7476 86.9082 95.3932 81.8688 98.6609 86.1601C100.748 88.9554 99.5665 94.0735 98.3854 97.0656C96.9287 100.806 92.2436 103.601 89.2121 99.6247C88.7791 99.0735 87.7948 99.6247 88.2279 100.176C90.8657 103.601 95.472 103.247 98.031 99.9397C99.6846 97.7743 100.196 95.0184 100.551 92.3806C100.866 90.0578 101.023 87.4594 99.5271 85.4515C96.3381 81.1601 91.0625 84.6641 89.0153 88.0893C86.4956 92.3019 85.7082 97.7349 89.1728 101.672C89.6058 102.223 90.3932 101.436 89.9602 100.885Z" fill="black"/>
<path d="M89.5673 98.8373C87.7957 95.6089 88.898 91.9869 91.024 89.1916C91.8901 88.0893 92.9138 86.6719 94.1736 86.0026C96.7327 84.5853 98.5437 87.2625 98.8587 89.5066C99.2917 92.7743 98.3468 96.3176 96.5358 99.0341C95.3547 100.766 92.7169 101.357 90.7484 100.373C89.3311 99.6247 88.8193 97.9318 88.7012 96.4357C88.4256 93.3255 89.4098 89.6247 91.7327 87.4593C92.9531 86.2782 94.9216 85.1759 96.6539 85.6483C99.2917 86.357 98.9374 89.6641 98.5831 91.79C98.15 94.7034 97.5201 98.6404 94.5673 100.137C92.6775 101.081 90.6303 100.137 89.6461 98.4436C88.6618 96.79 88.8193 94.7428 89.3705 92.9318C89.8823 91.2782 90.7484 89.6247 91.9689 88.3255C93.5831 86.6719 96.6933 85.1759 98.15 87.853C99.0949 89.5853 98.3468 92.0263 97.9138 93.7979C97.4807 95.7664 96.8901 97.5774 95.5122 99.1129C95.0398 99.6247 95.8272 100.451 96.2996 99.9003C97.9138 98.0893 98.6224 95.8452 99.1342 93.5223C99.5673 91.3963 100.158 88.8767 98.898 86.9082C96.2996 82.8137 91.2996 86.79 89.6067 89.6247C87.5988 93.0499 86.5358 98.5617 90.5909 101.003C94.8429 103.562 98.0712 98.7192 99.0161 95.1365C99.8429 91.9082 101.339 84.4672 96.024 84.4278C91.1421 84.3491 88.2681 89.4278 87.6775 93.6404C87.1657 97.4593 88.1106 101.869 92.7169 101.948C95.0004 101.987 96.2996 101.357 97.5988 99.3885C98.9374 97.3019 99.7642 94.9397 99.961 92.4987C100.197 90.1759 100 87.3019 98.15 85.6483C96.5752 84.231 94.5673 84.3097 92.9925 85.5696C88.898 88.7192 85.9453 94.6247 88.6224 99.5066C88.9374 100.018 89.9216 99.4672 89.5673 98.8373Z" fill="black"/>
<path d="M95.7481 99.0342C95.4725 99.3098 95.1969 99.546 94.9213 99.8216C94.6851 100.058 94.6851 100.412 94.9213 100.609C95.1575 100.845 95.4725 100.845 95.7087 100.609C95.9843 100.333 96.2599 100.097 96.5355 99.8216C96.7717 99.5853 96.7717 99.231 96.5355 99.0342C96.2993 98.7979 95.9449 98.7979 95.7481 99.0342Z" fill="black"/>
<path d="M96.457 99.7822C96.5751 99.6641 96.7326 99.546 96.8113 99.4279C97.2444 99.0342 96.6538 98.168 96.142 98.5223C95.2759 99.1523 94.5279 99.8216 93.8586 100.609C93.3861 101.121 94.1735 101.948 94.646 101.396C95.2759 100.688 95.9846 100.058 96.7326 99.5066C96.4964 99.1916 96.2995 98.9161 96.0633 98.6011C95.9452 98.7192 95.7877 98.8373 95.709 98.9554C95.1578 99.4672 95.9452 100.255 96.457 99.7822Z" fill="black"/>
<path d="M73.9757 69.7822C74.0544 71.9082 71.9284 73.483 72.3221 75.6877C72.5583 77.1838 73.8576 78.1286 75.2749 78.483C76.8497 78.8373 79.0544 78.5617 80.393 77.6168C82.2827 76.2782 83.3064 73.4042 84.2119 71.3964C84.5268 70.7271 83.5032 70.0971 83.1883 70.8058C80.7867 75.8845 78.9363 81.1601 77.7552 86.6719C77.5977 87.42 78.7394 87.7349 78.8969 86.9869C80.078 81.5932 81.8497 76.3964 84.2119 71.4357C83.8575 71.2389 83.5426 71.042 83.1883 70.8452C81.7316 74.1129 79.9205 78.3649 75.5898 77.42C71.3772 76.5145 75.2355 72.3806 75.1568 69.9003C75.1174 69.0341 73.9363 69.0341 73.9757 69.7822Z" fill="black"/>
<path d="M74.7244 70.5302C75.0788 70.609 75.4331 70.7271 75.7874 70.8058C75.6299 70.609 75.5118 70.4121 75.3543 70.2546C75.5118 72.2625 73.4252 73.8767 74.4095 75.9633C75.1181 77.4987 76.9291 78.2468 78.504 77.6956C79.2126 77.4594 78.8977 76.3176 78.189 76.5539C76.2992 77.2232 74.9213 75.4121 75.5512 73.6798C75.9843 72.4987 76.6536 71.5539 76.5354 70.2153C76.4961 69.9397 76.378 69.7035 76.1024 69.6641C75.7481 69.5854 75.3937 69.4672 75.0394 69.3885C74.2914 69.1917 74.0158 70.3334 74.7244 70.5302Z" fill="black"/>
<path d="M75.0395 70.727C74.4096 72.42 72.8348 75.0971 74.134 76.8688C75.0789 78.1286 76.8899 78.0105 78.2679 77.7743C79.0159 77.6562 78.7009 76.5144 77.9529 76.6326C76.7718 76.8294 74.7246 76.9475 74.8427 75.1759C74.9214 73.7979 75.7482 72.3412 76.2206 71.0814C76.4569 70.3333 75.3151 70.0184 75.0395 70.727Z" fill="black"/>
<path d="M74.8025 70.2546C72.9521 72.8531 72.1647 76.9869 76.4167 77.3806C80.3931 77.7743 82.8734 74.1917 84.0545 70.8846C84.3301 70.1759 83.1883 69.8609 82.9127 70.5696C80.9442 75.9239 78.7789 81.2783 77.519 86.8688C77.3616 87.6168 78.5033 87.9318 78.6608 87.1838C79.9206 81.5932 82.086 76.2389 84.0545 70.8846C83.6608 70.7665 83.3064 70.6877 82.9127 70.5696C82.086 72.8531 80.7474 75.294 78.2277 76.0027C76.4167 76.5539 74.5663 76.042 74.4482 73.798C74.4088 72.8137 75.2749 71.5932 75.8261 70.8058C76.2592 70.2546 75.2356 69.6641 74.8025 70.2546Z" fill="black"/>
<path d="M83.4236 70.6877C83.7386 71.5932 82.4787 73.6798 82.1638 74.6247C81.6913 75.9633 81.2189 77.3019 80.7465 78.6405C79.7622 81.4358 78.778 84.231 77.7937 87.0263C77.5575 87.735 78.6992 88.0499 78.9354 87.3413C80.0378 84.1917 81.1402 81.0027 82.2819 77.8531C82.7937 76.3964 83.3055 74.9397 83.8173 73.483C84.1323 72.6169 84.8803 71.357 84.5654 70.4121C84.3291 69.6641 83.1874 69.9791 83.4236 70.6877Z" fill="black"/>
<path d="M83.3455 71.5145C83.5424 74.0341 81.8495 76.9082 80.9833 79.231C79.9991 81.79 79.0542 84.3097 78.0699 86.8688C77.7943 87.5774 78.9361 87.8924 79.2117 87.1837C80.2746 84.3885 81.3376 81.5932 82.4006 78.7979C83.2668 76.5145 84.7235 73.9948 84.5266 71.5145C84.4872 70.7664 83.3061 70.7664 83.3455 71.5145Z" fill="black"/>
<path d="M112.794 66.908C112.322 68.6403 111.889 70.3332 111.417 72.0654C111.141 73.1678 110.472 74.6245 110.668 75.7662C110.944 77.4592 112.952 78.3253 114.487 78.404C119.409 78.6403 121.731 73.7584 122.243 69.5851C122.322 68.9946 121.377 68.7584 121.141 69.2702C118.543 74.9395 116.928 80.845 116.22 87.0261C116.141 87.7741 117.322 87.7741 117.401 87.0261C118.07 81.0812 119.684 75.2938 122.165 69.8607C121.81 69.7426 121.417 69.6639 121.062 69.5458C120.629 72.8922 118.976 76.9867 115.039 77.1836C114.33 77.2229 113.346 77.1048 112.755 76.6324C111.298 75.53 112.204 73.6009 112.558 72.3017C113.031 70.5694 113.464 68.8765 113.936 67.1442C114.133 66.4749 112.991 66.1599 112.794 66.908Z" fill="black"/>
<path d="M113.228 67.8923C114.212 67.6167 113.228 70.8057 113.189 71.0419C113.031 71.7112 112.913 72.3805 112.874 73.0497C112.834 74.1127 113.11 75.1757 113.74 76.0419C115.197 78.0498 117.323 77.4986 119.212 76.3962C119.882 76.0025 119.291 74.9789 118.622 75.3726C117.323 76.16 115.708 76.7899 114.645 75.2151C114.212 74.5852 114.055 73.7584 114.094 73.0104C114.134 71.5537 114.842 70.2938 114.96 68.8765C115.078 67.5773 114.409 66.2781 112.913 66.7112C112.204 66.9474 112.519 68.0891 113.228 67.8923Z" fill="black"/>
<path d="M112.912 67.5379C112.597 68.9552 112.282 70.3725 111.967 71.8292C111.731 72.8922 111.377 74.1127 111.613 75.1757C111.731 75.8056 112.046 76.3962 112.558 76.8292C113.227 77.3804 113.975 77.1442 114.684 77.5379C114.881 77.1836 115.078 76.8686 115.274 76.5143C112.676 75.2151 113.109 72.1442 113.7 69.782C113.306 69.6639 112.952 69.5851 112.558 69.467C112.046 72.2229 111.81 76.908 115.668 77.341C117.007 77.4985 118.07 76.7111 118.818 75.6481C120.156 73.7584 121.023 71.3174 122.046 69.2308C121.692 69.0733 121.337 68.9158 120.983 68.7584C119.29 74.9001 117.834 81.1206 116.652 87.3804C116.495 88.1284 117.637 88.4434 117.794 87.6954C118.975 81.4355 120.432 75.2151 122.125 69.0733C122.282 68.4434 121.337 68.0103 121.062 68.6009C120.117 70.5694 119.29 72.656 118.148 74.5458C117.164 76.1599 115.274 76.5536 114.054 74.9001C112.991 73.4434 113.424 71.3568 113.739 69.7426C113.897 68.9946 112.794 68.6796 112.597 69.4277C111.928 72.341 111.613 75.9237 114.723 77.4985C115.393 77.8528 115.983 76.8686 115.314 76.4749C115.038 76.3174 114.448 76.278 114.251 76.1599C112.912 75.2544 112.755 74.2308 113.03 72.8135C113.345 71.1599 113.778 69.467 114.133 67.8135C114.211 67.1442 113.07 66.8292 112.912 67.5379Z" fill="black"/>
<path d="M92.1261 55.0969C92.3623 54.5851 92.3623 54.152 92.5591 53.6402C93.0709 52.1441 94.4095 52.026 95.7481 52.1048C97.4017 52.1835 99.0158 52.3804 100.669 52.341C102.362 52.2623 104.016 52.026 105.669 51.9079C106.063 51.8686 106.457 51.8292 106.85 51.8292C107.795 51.9079 108.228 52.3016 108.071 52.9709C108.268 53.3252 108.15 53.6008 108.386 53.9552C108.78 54.5851 109.803 53.9945 109.41 53.3646C109.055 52.7741 109.37 52.0654 108.937 51.4748C108.622 51.0418 108.15 50.8449 107.677 50.7268C105.512 50.215 102.835 51.0811 100.669 51.1993C98.3072 51.278 95.8268 50.6087 93.504 51.0024C91.2993 51.3961 91.8505 52.8922 91.1024 54.5457C90.7875 55.215 91.8111 55.8056 92.1261 55.0969Z" fill="black"/>
<path d="M92.7173 54.5065C97.5204 54.1521 102.324 53.7978 107.127 53.4041C107.087 53.0104 107.009 52.6167 106.969 52.2624C104.135 52.6561 101.261 53.286 98.3865 53.1679C96.2999 53.0892 94.3314 52.3805 92.3629 53.4435C92.6385 53.5616 92.9535 53.6797 93.2291 53.7978C93.2291 53.4435 93.2684 53.1285 93.2684 52.7742C92.9141 52.7742 92.5991 52.7742 92.2448 52.7742C92.2842 52.9317 92.2842 53.0892 92.3236 53.2466C92.3236 53.8372 93.1503 54.0734 93.4259 53.5616C93.5834 53.4041 93.7409 53.286 93.8984 53.1285C93.6621 52.9317 93.3865 52.7348 93.1503 52.5773C92.9928 52.8529 92.8354 53.1285 92.6779 53.4041C92.9141 53.7191 93.1503 54.034 93.3865 54.349C93.5047 54.2309 93.6621 54.1521 93.7802 54.034C93.544 53.8372 93.2684 53.6403 93.0322 53.4829C92.9535 52.6561 106.182 52.5773 107.442 52.538C107.245 52.3411 107.048 52.1443 106.851 51.9474C106.851 52.538 106.851 53.0892 106.812 53.6797C107.127 53.5222 107.402 53.3254 107.717 53.1679C106.064 52.223 104.292 51.6718 102.402 51.7112C100.04 51.7506 97.5991 53.0892 95.4338 51.7112C95.3157 52.0655 95.2369 52.4592 95.1188 52.8136C96.5755 52.8136 97.9928 53.0104 99.4102 53.3254C99.4495 52.9317 99.5283 52.538 99.5676 52.1836C97.0086 52.2624 94.6464 52.8923 92.3629 53.9947C91.8905 54.2309 92.048 54.9395 92.5204 55.0577C95.985 56.2388 99.9613 54.664 103.505 54.6246C104.528 54.6246 109.568 55.2545 107.993 52.6561C107.599 52.0262 106.576 52.6167 106.969 53.2466C107.048 53.3647 103.898 53.4435 103.505 53.4435C102.245 53.4435 100.946 53.5616 99.6858 53.7191C97.4023 53.9947 95.1188 54.7033 92.8354 53.9159C92.8747 54.2703 92.9141 54.6246 92.9928 54.9789C95.0795 53.9553 97.2842 53.4041 99.607 53.3254C100.237 53.286 100.434 52.3018 99.7645 52.1836C98.2291 51.8293 96.733 51.6718 95.1582 51.6325C94.5676 51.6325 94.3708 52.4199 94.8432 52.7348C96.2606 53.6403 97.7566 53.6403 99.4102 53.3647C102.245 52.8923 104.568 52.7742 107.166 54.2309C107.56 54.4671 108.032 54.1521 108.072 53.7191C108.072 53.1285 108.072 52.5773 108.111 51.9868C108.111 51.6718 107.835 51.3962 107.52 51.3962C104.607 51.475 101.694 51.5537 98.7802 51.6325C97.1661 51.6718 93.9377 51.1207 92.5598 52.3018C90.1976 54.3096 94.4889 56.0025 94.2527 53.5616C94.2133 53.2073 93.8984 52.8529 93.5047 53.0104C93.0322 53.2073 92.9141 53.2466 92.5991 53.601C92.1661 54.1128 92.7173 54.8214 93.3078 54.5458C94.0952 54.1915 94.4495 53.5616 94.3708 52.6955C94.3314 52.3411 94.0165 51.9868 93.6228 52.1443C93.0322 52.3411 92.7566 52.5773 92.4417 53.1285C92.796 53.2466 93.1897 53.3254 93.544 53.4435C93.544 52.971 93.5047 52.8136 93.3078 52.3805C93.111 51.9474 92.481 52.0262 92.2842 52.3805C91.8905 53.0892 91.8117 53.5616 92.1267 54.3096C92.2842 54.664 92.6385 54.8608 92.9928 54.664C95.0007 53.5616 98.3078 54.664 100.552 54.5065C102.796 54.349 105.079 53.9553 107.324 53.6403C107.993 53.5616 107.835 52.4199 107.166 52.4986C102.363 52.8529 97.5598 53.2073 92.7566 53.601C91.9692 53.4041 91.9692 54.5852 92.7173 54.5065Z" fill="black"/>
<path d="M97.166 51.3176C96.8904 50.294 104.489 49.979 105.237 49.9396C105.04 49.7428 104.843 49.5459 104.646 49.3491V50.8845C104.961 50.727 105.237 50.5302 105.552 50.3727C104.607 49.8215 103.623 49.4672 102.52 49.4672C101.221 49.4672 99.4495 50.6089 98.2684 50.0577C98.229 50.4121 98.1896 50.7664 98.1109 51.1207C99.6463 50.8058 101.103 50.5696 102.638 50.727C102.599 50.3333 102.52 49.9396 102.481 49.5853C100.749 49.9003 98.977 50.2152 97.2448 50.5302C96.5755 50.6483 96.7329 51.7113 97.4022 51.6719C99.5282 51.5932 101.654 51.357 103.78 50.9633C104.449 50.8452 104.292 49.7822 103.623 49.8215C102.796 49.8609 101.93 49.9003 101.103 49.9003C101.142 50.294 101.221 50.6877 101.261 51.042C102.245 50.727 103.15 50.6089 104.213 50.6483C104.095 50.294 104.016 49.9003 103.898 49.5459C103.505 49.664 103.111 49.7428 102.717 49.8609C102.678 50.2546 102.599 50.6483 102.56 51.0026C103.229 51.042 103.78 51.0026 104.41 50.8845C105.158 50.7664 104.843 49.6247 104.095 49.7428C103.583 49.8609 103.072 49.9003 102.56 49.8215C101.89 49.7822 101.733 50.8845 102.402 50.9633C103.229 51.1207 103.82 51.0026 104.489 50.5302C104.961 50.1759 104.804 49.4672 104.174 49.4278C103.032 49.3885 102.009 49.5459 100.906 49.9003C100.276 50.0971 100.355 51.0814 101.064 51.042C101.89 51.0026 102.757 50.9633 103.583 50.9633C103.544 50.5696 103.465 50.1759 103.426 49.8215C101.418 50.2152 99.4101 50.4514 97.3629 50.4908C97.4022 50.8845 97.481 51.2782 97.5203 51.6326C99.2526 51.3176 101.024 51.0026 102.757 50.6877C103.465 50.5696 103.229 49.5853 102.599 49.5459C100.946 49.3885 99.3707 49.664 97.7566 49.979C97.2841 50.0971 97.166 50.8451 97.5991 51.042C98.4652 51.4357 99.1739 51.4357 100.119 51.1601C101.89 50.6483 103.229 50.3727 104.922 51.357C105.316 51.5932 105.788 51.2782 105.827 50.8451C105.827 50.3333 105.827 49.8215 105.827 49.3097C105.827 48.9948 105.552 48.6798 105.237 48.7192C102.796 48.916 100.237 48.9554 97.7959 49.3491C96.5361 49.5459 95.67 50.294 95.9849 51.5932C96.2211 52.3806 97.3629 52.0656 97.166 51.3176Z" fill="black"/>
<path d="M97.0466 51.0813C97.0466 50.5695 97.086 50.0971 97.086 49.5852C96.8892 49.7821 96.6923 49.9789 96.4955 50.1758C97.9128 50.0577 99.3695 49.9396 100.787 49.8215C101.456 49.7821 102.125 49.7034 102.755 49.664C102.834 49.664 105.236 49.3884 104.881 50.0183C104.527 50.6876 105.551 51.2782 105.905 50.6089C107.795 46.9081 97.7553 48.8766 96.4561 48.9947C96.1411 49.0341 95.8655 49.2309 95.8655 49.5852C95.8655 50.0971 95.8262 50.5695 95.8262 51.0813C95.8655 51.8293 97.0466 51.8293 97.0466 51.0813Z" fill="black"/>
<path d="M91.4966 47.0262C92.5202 46.4356 93.5438 45.8451 94.5674 45.2545C95.2367 44.8608 94.6462 43.8372 93.9769 44.2309C92.9533 44.8214 91.9296 45.412 90.906 46.0025C90.2761 46.3962 90.8667 47.4199 91.4966 47.0262Z" fill="black"/>
<path d="M90.7095 40.4121H92.9142C93.6622 40.4121 93.6622 39.231 92.9142 39.231C92.1662 39.231 91.4575 39.231 90.7095 39.231C89.9614 39.231 89.9614 40.4121 90.7095 40.4121Z" fill="black"/>
<path d="M97.9136 36.1207C97.5593 35.2546 97.1656 34.3491 96.8113 33.483C96.5357 32.7743 95.3939 33.0893 95.6695 33.7979C96.0239 34.6641 96.4176 35.5696 96.7719 36.4357C97.0869 37.1444 98.2286 36.8294 97.9136 36.1207Z" fill="black"/>
<path d="M104.133 34.7035C104.369 33.5224 104.566 32.3413 104.802 31.1602C104.96 30.4121 103.818 30.0972 103.661 30.8452C103.424 32.0263 103.228 33.2074 102.991 34.3885C102.834 35.0972 103.976 35.4515 104.133 34.7035Z" fill="black"/>
<path d="M107.795 37.6958C108.583 37.1446 109.37 36.6328 110.158 36.0816C110.788 35.6486 110.197 34.6249 109.567 35.058C108.78 35.6092 107.992 36.121 107.205 36.6722C106.575 37.1053 107.165 38.1289 107.795 37.6958Z" fill="black"/>
<path d="M109.841 41.9081C110.589 42.3411 111.298 42.7742 112.046 43.2073C112.715 43.601 113.306 42.5774 112.637 42.1837C111.889 41.7506 111.18 41.3175 110.432 40.8844C109.763 40.4907 109.172 41.5144 109.841 41.9081Z" fill="black"/>
<path d="M64.7649 64.9395C60.198 78.0498 58.6232 91.8687 57.0878 105.609C57.009 106.357 58.1901 106.357 58.2689 105.609C59.7649 91.9868 61.3397 78.286 65.9066 65.2545C66.1429 64.5065 65.0011 64.2309 64.7649 64.9395Z" fill="black"/>
<path d="M138.387 61.2781C136.457 76.0025 133.15 90.53 128.505 104.664C128.268 105.373 129.41 105.688 129.646 104.979C134.292 90.7269 137.599 76.1206 139.568 61.2781C139.646 60.53 138.465 60.53 138.387 61.2781Z" fill="black"/>
<path d="M65.9449 65.0578C77.9921 62.0657 90.2362 60.0972 102.598 59.1523C108.622 58.6799 114.646 58.483 120.669 58.5224C123.701 58.5224 126.693 58.6011 129.724 58.7586C132.677 58.9161 135.591 59.1129 138.071 60.8846C138.701 61.3177 139.291 60.294 138.661 59.861C134.252 56.7507 127.638 57.4594 122.559 57.3807C116.142 57.3019 109.724 57.4594 103.346 57.9318C90.6299 58.8374 78.0315 60.8846 65.6299 63.9555C64.9213 64.113 65.2362 65.2547 65.9449 65.0578Z" fill="black"/>
<path d="M57.2849 107.065C66.7337 113.955 79.4897 112.38 90.4345 111.869C97.3243 111.554 104.214 111.121 111.064 110.333C116.891 109.625 123.427 109.191 128.545 106.042C129.175 105.648 128.584 104.625 127.954 105.018C122.639 108.286 115.592 108.64 109.529 109.31C103.19 110.018 96.8125 110.373 90.4345 110.688C79.6865 111.199 67.1274 112.774 57.8755 106.042C57.2456 105.609 56.655 106.632 57.2849 107.065Z" fill="black"/>
<path d="M131.024 108.089C130.197 107.459 130.945 106.042 131.929 106.475C133.11 106.987 132.323 108.562 131.22 108.207C130.512 107.971 130.197 109.113 130.905 109.349C132.008 109.704 133.189 109.074 133.622 108.011C134.055 106.948 133.425 105.806 132.441 105.373C131.417 104.94 130.236 105.294 129.764 106.318C129.291 107.302 129.606 108.444 130.433 109.113C131.024 109.585 131.614 108.562 131.024 108.089Z" fill="black"/>
<path d="M138.071 49.2704C137.835 48.6405 137.638 47.9712 137.402 47.3413C137.245 46.9476 136.733 45.8453 136.733 45.4122C136.851 43.7586 139.449 44.861 140.473 45.0578C140.788 45.0972 141.103 44.9004 141.182 44.5854C141.418 43.2862 141.379 42.0264 141.457 40.7271C141.575 39.1523 142.127 37.735 142.638 36.3177C143.583 33.6012 144.449 30.7665 146.812 29.0342C147.442 28.6012 146.733 27.6169 146.103 28.0893C143.701 29.8216 142.678 32.4988 141.733 35.2547C141.3 36.5539 140.749 37.8925 140.434 39.2704C140.079 40.9634 140.276 42.6956 140.001 44.3886C140.237 44.2311 140.473 44.0342 140.709 43.9161C139.489 43.6405 136.497 42.3807 135.63 43.9555C134.804 45.4516 136.536 48.3649 137.008 49.7429C137.166 50.3728 138.268 49.9791 138.071 49.2704Z" fill="black"/>
<path d="M146.378 43.798C144.803 41.5932 145.827 39.1917 147.953 38.0106C149.37 37.1838 150.158 35.6877 151.142 34.4279C153.819 31.0814 156.969 28.168 160.394 25.6484C161.024 25.2153 160.315 24.231 159.685 24.7035C157.599 26.1995 155.63 27.8531 153.819 29.6641C151.851 31.5932 150.276 33.798 148.543 35.924C147.126 37.6169 145.197 37.8925 144.567 40.2153C144.134 41.7507 144.449 43.2468 145.354 44.546C145.827 45.0972 146.811 44.4279 146.378 43.798Z" fill="black"/>
<path d="M196 28H180V44H196V28Z" fill="#DF2B51"/>
<path d="M180 52H168V64H180V52Z" fill="#DF2B51"/>
<path d="M40 92H24V108H40V92Z" fill="#DF2B51"/>
<path d="M52 74H40V86H52V74Z" fill="#DF2B51"/>
<path d="M178 80H172V86H178V80Z" fill="#DF2B51"/>
<path d="M104 39H98V45H104V39Z" fill="#DF2B51"/>
<path d="M26 80H20V86H26V80Z" fill="#DF2B51"/>
<path d="M12 112H6V118H12V112Z" fill="#DF2B51"/>
</svg>
