<svg width="24" height="24" viewBox="0 0 24 24" fill="none" xmlns="http://www.w3.org/2000/svg">
<path fill-rule="evenodd" clip-rule="evenodd" d="M22 12C22 6.48633 17.5142 2 12 2C6.48584 2 2 6.48633 2 12C2 17.5137 6.48584 22 12 22C17.5142 22 22 17.5137 22 12ZM3 12C3 7.03711 7.0376 3 12 3C16.9624 3 21 7.03711 21 12C21 16.9629 16.9624 21 12 21C7.0376 21 3 16.9629 3 12ZM8.74951 6.96777C8.8785 6.8929 9.0319 6.8811 9.16903 6.93011L9.24902 6.9668L17.249 11.5664C17.4043 11.6553 17.5 11.8213 17.5 12C17.5 12.1489 17.4335 12.289 17.3215 12.383L17.249 12.4336L9.24902 17.0332C9.17188 17.0771 9.08594 17.0996 9 17.0996C8.91357 17.0996 8.82715 17.0771 8.74951 17.0322C8.62093 16.9582 8.53338 16.8312 8.50777 16.6875L8.5 16.5996V7.40039C8.5 7.22168 8.59521 7.05664 8.74951 6.96777ZM15.9971 12L9.5 15.7354V8.26465L15.9971 12Z" fill="#9747FF"/>
</svg>
