<svg width="48" height="48" viewBox="0 0 48 48" fill="none" xmlns="http://www.w3.org/2000/svg">
<rect width="48" height="48" fill="#FEF1F1"/>
<g id="Carousel">
<path d="M-639 -1539C-639 -1540.1 -638.105 -1541 -637 -1541H2991C2992.1 -1541 2993 -1540.1 2993 -1539V7853C2993 7854.1 2992.1 7855 2991 7855H-637C-638.104 7855 -639 7854.1 -639 7853V-1539Z" fill="#002B45" fill-opacity="0.05"/>
<path d="M-637 -1540H2991V-1542H-637V-1540ZM2992 -1539V7853H2994V-1539H2992ZM2991 7854H-637V7856H2991V7854ZM-638 7853V-1539H-640V7853H-638ZM-637 7854C-637.552 7854 -638 7853.55 -638 7853H-640C-640 7854.66 -638.657 7856 -637 7856V7854ZM2992 7853C2992 7853.55 2991.55 7854 2991 7854V7856C2992.66 7856 2994 7854.66 2994 7853H2992ZM2991 -1540C2991.55 -1540 2992 -1539.55 2992 -1539H2994C2994 -1540.66 2992.66 -1542 2991 -1542V-1540ZM-637 -1542C-638.657 -1542 -640 -1540.66 -640 -1539H-638C-638 -1539.55 -637.552 -1540 -637 -1540V-1542Z" fill="black" fill-opacity="0.1"/>
<g id="mbCarouselMB]" clip-path="url(#clip0_4_218)">
<rect width="1696" height="9196" transform="translate(-539 -1441)" fill="white"/>
<g id="template-fluid">
<g id="Anatomy">
<g id="Anatomy_2">
<g id="Frame 124">
<rect x="-411" y="-285" width="1440" height="683" rx="12" fill="#FAFAFA"/>
<g id="mbCarousel">
<g id="content_placeholder">
<path d="M-100 -82C-100 -86.4183 -96.4183 -90 -92 -90H140C144.418 -90 148 -86.4183 148 -82V182C148 186.418 144.418 190 140 190H-92C-96.4183 190 -100 186.418 -100 182V-82Z" fill="#236DF6" fill-opacity="0.1"/>
<g id="Button container">
<g id="Icon">
<g id="Vector">
<path d="M40 12C40 10.9391 39.5786 9.92172 38.8284 9.17157C38.0783 8.42143 37.0609 8 36 8H32C30.9391 8 29.9217 8.42143 29.1716 9.17157C28.4214 9.92172 28 10.9391 28 12V14C28 15.0609 28.4214 16.0783 29.1716 16.8284C29.9217 17.5786 30.9391 18 32 18H36C37.0609 18 38.0783 17.5786 38.8284 16.8284C39.5786 16.0783 40 15.0609 40 14V12Z" stroke="#236DF6" stroke-width="3" stroke-linecap="round" stroke-linejoin="round"/>
<path d="M40 30C40 28.9391 39.5786 27.9217 38.8284 27.1716C38.0783 26.4214 37.0609 26 36 26H32C30.9391 26 29.9217 26.4214 29.1716 27.1716C28.4214 27.9217 28 28.9391 28 30V36C28 37.0609 28.4214 38.0783 29.1716 38.8284C29.9217 39.5786 30.9391 40 32 40H36C37.0609 40 38.0783 39.5786 38.8284 38.8284C39.5786 38.0783 40 37.0609 40 36V30Z" stroke="#236DF6" stroke-width="3" stroke-linecap="round" stroke-linejoin="round"/>
<path d="M20 12C20 10.9391 19.5786 9.92172 18.8284 9.17157C18.0783 8.42143 17.0609 8 16 8H12C10.9391 8 9.92172 8.42143 9.17157 9.17157C8.42143 9.92172 8 10.9391 8 12V36C8 37.0609 8.42143 38.0783 9.17157 38.8284C9.92172 39.5786 10.9391 40 12 40H16C17.0609 40 18.0783 39.5786 18.8284 38.8284C19.5786 38.0783 20 37.0609 20 36V12Z" stroke="#236DF6" stroke-width="3" stroke-linecap="round" stroke-linejoin="round"/>
</g>
</g>
</g>
</g>
</g>
</g>
</g>
</g>
</g>
</g>
</g>
<defs>
<clipPath id="clip0_4_218">
<rect width="1696" height="9196" fill="white" transform="translate(-539 -1441)"/>
</clipPath>
</defs>
</svg>
